<svg width="32" height="32" viewBox="0 0 32 32" fill="none" xmlns="http://www.w3.org/2000/svg">
<path fill-rule="evenodd" clip-rule="evenodd" d="M6.12538 0.738912C4.7747 1.20314 4.81686 1.16098 4.58466 2.17407C4.18367 3.8625 4.77453 18.6365 5.34448 21.5912C5.49219 22.3089 6.37848 22.5199 8.38374 22.33C9.37559 22.2455 10.5998 22.2455 11.1063 22.33C12.4149 22.5622 12.7737 22.4143 12.9214 21.4857C13.1113 20.2193 15.6229 9.4345 16.0873 5.27658C16.1708 4.47078 15.8556 3.67498 15.243 3.14484C14.6305 2.6147 10.7475 -0.865032 6.12538 0.738912ZM12.3727 3.0182C12.7737 3.12376 12.8582 3.27147 12.7526 3.6937C12.6892 3.98914 10.0088 18.151 9.7555 19.6074C9.62886 20.4094 9.60779 20.4094 8.74258 20.346L7.85596 20.2827C7.56053 13.8455 7.41282 9.26554 6.7798 4.20009C6.69515 3.56707 7.13846 2.99712 7.77165 2.89157C9.29128 2.65954 10.9376 2.61722 12.3727 3.0182ZM20.0129 7.1338C19.4431 7.42922 19.3588 7.66158 18.599 11.1017C16.9316 18.6786 16.6149 20.8948 17.0793 21.4857C17.7336 22.3089 21.1949 23.3852 22.8834 23.3008C23.6221 23.2586 24.2974 22.8154 24.635 22.1612C26.9355 17.539 28.3285 14.8163 29.4894 11.6927C29.7426 11.0174 29.5528 10.2575 29.004 9.79316C26.6401 7.70358 21.6802 6.24734 20.0129 7.1338ZM24.4662 9.28662C26.6401 10.1098 26.9779 10.2997 26.7668 10.553C26.619 10.743 22.0391 21.1481 21.8069 21.3801C21.5536 21.6546 19.823 21.1269 19.9707 20.8314C20.224 20.3249 21.1526 16.3359 21.9124 12.3048C22.3345 10.0464 22.6722 8.75899 22.841 8.75899C23.01 8.78007 23.7275 9.01226 24.4662 9.28678V9.28662ZM5.55542 24.2928C-0.100879 26.2979 2.34753 31.6798 8.93245 31.6798C12.8582 31.6798 15.0321 30.3079 14.9054 28.704C14.7577 26.9521 9.01676 23.0687 5.55559 24.2928H5.55542ZM18.3668 25.8124C14.2299 27.8597 16.3617 31.4687 21.7013 31.4687C25.036 31.4687 27.6321 29.337 26.429 27.6064C25.3738 26.1289 20.1184 24.947 18.3668 25.8124ZM10.9376 26.91C12.6892 28.1551 12.3938 28.9149 9.83998 29.6958C7.11738 30.519 4.94349 29.8224 4.94349 28.4718C4.92241 27.8386 7.37066 24.3772 10.9376 26.91ZM22.419 27.1843C24.9938 28.6616 23.3687 30.8355 20.4139 29.8648C18.9366 29.3793 18.5988 28.3873 19.5063 27.2265C20.1818 26.2979 20.8572 26.2979 22.419 27.1843Z" fill="#A3968E"/>
</svg>
