<svg width="27" height="27" viewBox="0 0 27 27" fill="none" xmlns="http://www.w3.org/2000/svg">
<path fill-rule="evenodd" clip-rule="evenodd" d="M12.2946 0H6.72923C5.21914 0.038814 3.7871 0.952357 3.11538 2.30538L0 8.30769V8.33997H12.2946V0ZM0 24.9231V10.7507H27V24.9231C27 25.4739 26.7811 26.0022 26.3917 26.3917C26.0022 26.7811 25.4739 27 24.9231 27H2.07692C1.52609 27 0.997816 26.7811 0.608316 26.3917C0.218818 26.0022 0 25.4739 0 24.9231ZM27 8.30769V8.33997H14.7054V0H20.2708C21.8164 0.000820144 23.3006 0.921271 23.9885 2.30538L27 8.30769ZM12.2937 22.8461C12.2937 23.5118 12.8334 24.0514 13.4991 24.0514C14.1648 24.0514 14.7044 23.5118 14.7044 22.8461V18.9834H16.3422C16.7528 18.9834 17.123 18.7361 17.2801 18.3568C17.4372 17.9774 17.3504 17.5408 17.06 17.2505L14.2174 14.4079C13.8209 14.0114 13.1782 14.0114 12.7818 14.4079L9.93911 17.2505C9.64878 17.5408 9.56193 17.9774 9.71905 18.3568C9.87618 18.7361 10.2463 18.9834 10.6569 18.9834H12.2937V22.8461Z" fill="#A3968E"/>
</svg>
