<svg width="30" height="16" viewBox="0 0 30 16" fill="none" xmlns="http://www.w3.org/2000/svg">
<path d="M7.08333 3.25016V0.0834961H29.25V3.25016H7.08333ZM7.08333 9.5835V6.41683H29.25V9.5835H7.08333ZM7.08333 15.9168V12.7502H29.25V15.9168H7.08333ZM2.33333 3.25016C1.88472 3.25016 1.50868 3.09843 1.20521 2.79495C0.901736 2.49148 0.75 2.11544 0.75 1.66683C0.75 1.21822 0.901736 0.842177 1.20521 0.538704C1.50868 0.235232 1.88472 0.0834961 2.33333 0.0834961C2.78194 0.0834961 3.15799 0.235232 3.46146 0.538704C3.76493 0.842177 3.91667 1.21822 3.91667 1.66683C3.91667 2.11544 3.76493 2.49148 3.46146 2.79495C3.15799 3.09843 2.78194 3.25016 2.33333 3.25016ZM2.33333 9.5835C1.88472 9.5835 1.50868 9.43176 1.20521 9.12829C0.901736 8.82482 0.75 8.44877 0.75 8.00016C0.75 7.55155 0.901736 7.17551 1.20521 6.87204C1.50868 6.56857 1.88472 6.41683 2.33333 6.41683C2.78194 6.41683 3.15799 6.56857 3.46146 6.87204C3.76493 7.17551 3.91667 7.55155 3.91667 8.00016C3.91667 8.44877 3.76493 8.82482 3.46146 9.12829C3.15799 9.43176 2.78194 9.5835 2.33333 9.5835ZM2.33333 15.9168C1.88472 15.9168 1.50868 15.7651 1.20521 15.4616C0.901736 15.1581 0.75 14.7821 0.75 14.3335C0.75 13.8849 0.901736 13.5088 1.20521 13.2054C1.50868 12.9019 1.88472 12.7502 2.33333 12.7502C2.78194 12.7502 3.15799 12.9019 3.46146 13.2054C3.76493 13.5088 3.91667 13.8849 3.91667 14.3335C3.91667 14.7821 3.76493 15.1581 3.46146 15.4616C3.15799 15.7651 2.78194 15.9168 2.33333 15.9168Z" fill="white"/>
</svg>
