<svg width="105" height="100" viewBox="0 0 105 100" fill="none" xmlns="http://www.w3.org/2000/svg">
<path fill-rule="evenodd" clip-rule="evenodd" d="M99.1 50.1001C99.1 77.5001 76.9 99.7 49.6 99.7C22.2 99.7 0 77.5001 0 50.1001C0 22.7001 22.2 0.5 49.6 0.5C76.9 0.5 99.1 22.7001 99.1 50.1001ZM78.7 86C78.1 75.2 69.3 66.6001 58.4 66.6001H40.7C29.8 66.6001 21 75.2 20.5 86C28.4 92.5 38.5 96.3999 49.6 96.3999C60.6 96.3999 70.7 92.5 78.7 86ZM95.8 50.1001C95.8 24.6001 75.1 3.80005 49.6 3.80005C24 3.80005 3.29999 24.6001 3.29999 50.1001C3.29999 63.1001 8.70002 74.9 17.4 83.3C19.2 72 28.9 63.3 40.7 63.3H58.4C70.2 63.3 79.9 72 81.7 83.3C90.4 74.9 95.8 63.1001 95.8 50.1001ZM66.1 40.2C66.1 49.2999 58.7 56.7 49.6 56.7C40.4 56.7 33 49.2999 33 40.2C33 31 40.4 23.6001 49.6 23.6001C58.7 23.6001 66.1 31 66.1 40.2ZM62.8 40.2C62.8 32.9 56.9 26.8999 49.6 26.8999C42.3 26.8999 36.3 32.9 36.3 40.2C36.3 47.5 42.3 53.3999 49.6 53.3999C56.9 53.3999 62.8 47.5 62.8 40.2Z" fill="#A3968E"/>
<path d="M104.2 82C104.2 91.665 96.3649 99.5 86.7 99.5C77.035 99.5 69.2 91.665 69.2 82C69.2 72.335 77.035 64.5 86.7 64.5C96.3649 64.5 104.2 72.335 104.2 82Z" fill="#A3968E"/>
<mask id="path-3-inside-1_36_345" fill="white">
<path fill-rule="evenodd" clip-rule="evenodd" d="M92.4166 83.1667V87.4833C92.4166 88.6499 91.4833 89.5249 90.3749 89.5249H81.7416C80.6333 89.5249 79.7 88.6499 79.7 87.4833V78.8499C79.7 77.7416 80.6333 76.8082 81.7416 76.8082H86.0583C86.175 76.8082 86.2916 76.925 86.2916 77.0417C86.2916 77.1583 86.175 77.2749 86.0583 77.2749H81.7416C80.8666 77.2749 80.1666 77.9749 80.1666 78.8499V87.4833C80.1666 88.3583 80.8666 89.0582 81.7416 89.0582H90.3749C91.2499 89.0582 91.95 88.3583 91.95 87.4833V83.1667C91.95 83.05 92.0666 82.9332 92.1833 82.9332C92.3 82.9332 92.4166 83.05 92.4166 83.1667ZM93.9333 78.0333L92.7083 79.2582L86.7 85.2666C86.6611 85.3055 86.6027 85.325 86.525 85.325L83.725 85.9083C83.725 85.9083 83.7055 85.9083 83.6666 85.9083C83.4333 85.9083 83.3166 85.7333 83.3166 85.5L83.9 82.7C83.9 82.6222 83.9389 82.5638 84.0166 82.5249L90.6083 75.9332L91.1916 75.2917C91.425 75.1167 91.6583 75 91.95 75C92.1833 75 92.475 75.1167 92.65 75.2917L93.9333 76.575C94.3416 76.9833 94.3416 77.625 93.9333 78.0333ZM91.95 79.375L89.85 77.3333L84.3083 82.8166L83.8416 85.4416L86.4083 84.9167L91.95 79.375ZM93.6416 76.8666L92.3583 75.5833C92.2416 75.4667 92.1055 75.4083 91.95 75.4083C91.7944 75.4083 91.6583 75.4667 91.5416 75.5833L90.2 76.9833L92.2999 79.0249L93.6416 77.6832C93.875 77.4499 93.875 77.1 93.6416 76.8666Z"/>
</mask>
<path fill-rule="evenodd" clip-rule="evenodd" d="M92.4166 83.1667V87.4833C92.4166 88.6499 91.4833 89.5249 90.3749 89.5249H81.7416C80.6333 89.5249 79.7 88.6499 79.7 87.4833V78.8499C79.7 77.7416 80.6333 76.8082 81.7416 76.8082H86.0583C86.175 76.8082 86.2916 76.925 86.2916 77.0417C86.2916 77.1583 86.175 77.2749 86.0583 77.2749H81.7416C80.8666 77.2749 80.1666 77.9749 80.1666 78.8499V87.4833C80.1666 88.3583 80.8666 89.0582 81.7416 89.0582H90.3749C91.2499 89.0582 91.95 88.3583 91.95 87.4833V83.1667C91.95 83.05 92.0666 82.9332 92.1833 82.9332C92.3 82.9332 92.4166 83.05 92.4166 83.1667ZM93.9333 78.0333L92.7083 79.2582L86.7 85.2666C86.6611 85.3055 86.6027 85.325 86.525 85.325L83.725 85.9083C83.725 85.9083 83.7055 85.9083 83.6666 85.9083C83.4333 85.9083 83.3166 85.7333 83.3166 85.5L83.9 82.7C83.9 82.6222 83.9389 82.5638 84.0166 82.5249L90.6083 75.9332L91.1916 75.2917C91.425 75.1167 91.6583 75 91.95 75C92.1833 75 92.475 75.1167 92.65 75.2917L93.9333 76.575C94.3416 76.9833 94.3416 77.625 93.9333 78.0333ZM91.95 79.375L89.85 77.3333L84.3083 82.8166L83.8416 85.4416L86.4083 84.9167L91.95 79.375ZM93.6416 76.8666L92.3583 75.5833C92.2416 75.4667 92.1055 75.4083 91.95 75.4083C91.7944 75.4083 91.6583 75.4667 91.5416 75.5833L90.2 76.9833L92.2999 79.0249L93.6416 77.6832C93.875 77.4499 93.875 77.1 93.6416 76.8666Z" fill="white"/>
<path d="M93.9333 78.0333L94.6404 78.7404L94.6404 78.7404L93.9333 78.0333ZM92.7083 79.2582L92.0012 78.5511L92.0012 78.5511L92.7083 79.2582ZM86.7 85.2666L87.4071 85.9737L87.4071 85.9737L86.7 85.2666ZM86.525 85.325V84.325H86.4219L86.321 84.346L86.525 85.325ZM83.725 85.9083V86.9083H83.828L83.9289 86.8873L83.725 85.9083ZM83.3166 85.5L82.3376 85.296L82.3166 85.3969V85.5H83.3166ZM83.9 82.7L84.8789 82.9039L84.9 82.803V82.7H83.9ZM84.0166 82.5249L84.4638 83.4194L84.609 83.3468L84.7237 83.232L84.0166 82.5249ZM90.6083 75.9332L91.3154 76.6404L91.3322 76.6236L91.3482 76.606L90.6083 75.9332ZM91.1916 75.2917L90.5916 74.4917L90.5156 74.5487L90.4517 74.6189L91.1916 75.2917ZM92.65 75.2917L91.9429 75.9988L91.9429 75.9988L92.65 75.2917ZM93.9333 76.575L94.6404 75.8679L94.6404 75.8679L93.9333 76.575ZM91.95 79.375L92.6571 80.0821L93.3742 79.365L92.647 78.658L91.95 79.375ZM89.85 77.3333L90.547 76.6163L89.8438 75.9326L89.1466 76.6225L89.85 77.3333ZM84.3083 82.8166L83.6049 82.1058L83.3793 82.329L83.3237 82.6416L84.3083 82.8166ZM83.8416 85.4416L82.857 85.2666L82.5993 86.7164L84.042 86.4213L83.8416 85.4416ZM86.4083 84.9167L86.6087 85.8964L86.903 85.8362L87.1154 85.6238L86.4083 84.9167ZM93.6416 76.8666L94.3487 76.1595L94.3487 76.1595L93.6416 76.8666ZM92.3583 75.5833L91.6512 76.2904L91.6512 76.2904L92.3583 75.5833ZM91.5416 75.5833L90.8345 74.8762L90.827 74.8837L90.8196 74.8914L91.5416 75.5833ZM90.2 76.9833L89.478 76.2914L88.791 77.0082L89.5029 77.7003L90.2 76.9833ZM92.2999 79.0249L91.6029 79.7419L92.3098 80.4293L93.007 79.732L92.2999 79.0249ZM93.6416 77.6832L94.3487 78.3904V78.3904L93.6416 77.6832ZM91.4166 83.1667V87.4833H93.4166V83.1667H91.4166ZM91.4166 87.4833C91.4166 88.0791 90.9498 88.5249 90.3749 88.5249V90.5249C92.0168 90.5249 93.4166 89.2208 93.4166 87.4833H91.4166ZM90.3749 88.5249H81.7416V90.5249H90.3749V88.5249ZM81.7416 88.5249C81.1668 88.5249 80.7 88.0791 80.7 87.4833H78.7C78.7 89.2208 80.0998 90.5249 81.7416 90.5249V88.5249ZM80.7 87.4833V78.8499H78.7V87.4833H80.7ZM80.7 78.8499C80.7 78.2939 81.1856 77.8082 81.7416 77.8082V75.8082C80.081 75.8082 78.7 77.1893 78.7 78.8499H80.7ZM81.7416 77.8082H86.0583V75.8082H81.7416V77.8082ZM86.0583 77.8082C85.7911 77.8082 85.6079 77.6847 85.5114 77.5881C85.4149 77.4915 85.2916 77.3084 85.2916 77.0417H87.2916C87.2916 76.6582 87.11 76.3584 86.926 76.1743C86.742 75.9902 86.4421 75.8082 86.0583 75.8082V77.8082ZM85.2916 77.0417C85.2916 76.7748 85.415 76.5915 85.5117 76.4949C85.6084 76.3982 85.7915 76.2749 86.0583 76.2749V78.2749C86.4417 78.2749 86.7416 78.0934 86.9257 77.9092C87.1099 77.7251 87.2916 77.4252 87.2916 77.0417H85.2916ZM86.0583 76.2749H81.7416V78.2749H86.0583V76.2749ZM81.7416 76.2749C80.3144 76.2749 79.1666 77.4226 79.1666 78.8499H81.1666C81.1666 78.5272 81.4189 78.2749 81.7416 78.2749V76.2749ZM79.1666 78.8499V87.4833H81.1666V78.8499H79.1666ZM79.1666 87.4833C79.1666 88.9106 80.3144 90.0582 81.7416 90.0582V88.0582C81.4189 88.0582 81.1666 87.806 81.1666 87.4833H79.1666ZM81.7416 90.0582H90.3749V88.0582H81.7416V90.0582ZM90.3749 90.0582C91.8022 90.0582 92.95 88.9106 92.95 87.4833H90.95C90.95 87.806 90.6977 88.0582 90.3749 88.0582V90.0582ZM92.95 87.4833V83.1667H90.95V87.4833H92.95ZM92.95 83.1667C92.95 83.4335 92.8266 83.6166 92.7301 83.7132C92.6336 83.8097 92.4504 83.9332 92.1833 83.9332V81.9332C91.7995 81.9332 91.4996 82.1152 91.3156 82.2992C91.1316 82.4833 90.95 82.7831 90.95 83.1667H92.95ZM92.1833 83.9332C91.9161 83.9332 91.7329 83.8097 91.6364 83.7131C91.5399 83.6165 91.4166 83.4334 91.4166 83.1667H93.4166C93.4166 82.7832 93.235 82.4834 93.051 82.2993C92.867 82.1152 92.5671 81.9332 92.1833 81.9332V83.9332ZM93.2262 77.3262L92.0012 78.5511L93.4154 79.9654L94.6404 78.7404L93.2262 77.3262ZM92.0012 78.5511L85.9928 84.5595L87.4071 85.9737L93.4154 79.9653L92.0012 78.5511ZM85.9928 84.5595C86.2072 84.3451 86.4478 84.325 86.525 84.325V86.325C86.7577 86.325 87.1149 86.2659 87.4071 85.9737L85.9928 84.5595ZM86.321 84.346L83.521 84.9293L83.9289 86.8873L86.7289 86.304L86.321 84.346ZM83.725 85.9083C83.725 84.9083 83.725 84.9083 83.725 84.9083C83.725 84.9083 83.725 84.9083 83.725 84.9083C83.725 84.9083 83.725 84.9083 83.725 84.9083C83.725 84.9083 83.725 84.9083 83.725 84.9083C83.725 84.9083 83.725 84.9083 83.725 84.9083C83.725 84.9083 83.725 84.9083 83.725 84.9083C83.725 84.9083 83.725 84.9083 83.725 84.9083C83.725 84.9083 83.725 84.9083 83.725 84.9083C83.7249 84.9083 83.7249 84.9083 83.7249 84.9083C83.7249 84.9083 83.7249 84.9083 83.7249 84.9083C83.7249 84.9083 83.7249 84.9083 83.7249 84.9083C83.7249 84.9083 83.7249 84.9083 83.7249 84.9083C83.7249 84.9083 83.7249 84.9083 83.7249 84.9083C83.7249 84.9083 83.7249 84.9083 83.7249 84.9083C83.7249 84.9083 83.7249 84.9083 83.7249 84.9083C83.7249 84.9083 83.7249 84.9083 83.7249 84.9083C83.7249 84.9083 83.7249 84.9083 83.7249 84.9083C83.7249 84.9083 83.7249 84.9083 83.7249 84.9083C83.7249 84.9083 83.7249 84.9083 83.7249 84.9083C83.7249 84.9083 83.7249 84.9083 83.7249 84.9083C83.7249 84.9083 83.7249 84.9083 83.7249 84.9083C83.7249 84.9083 83.7249 84.9083 83.7249 84.9083C83.7249 84.9083 83.7249 84.9083 83.7248 84.9083C83.7248 84.9083 83.7248 84.9083 83.7248 84.9083C83.7248 84.9083 83.7248 84.9083 83.7248 84.9083C83.7248 84.9083 83.7248 84.9083 83.7248 84.9083C83.7248 84.9083 83.7248 84.9083 83.7248 84.9083C83.7248 84.9083 83.7248 84.9083 83.7248 84.9083C83.7248 84.9083 83.7248 84.9083 83.7248 84.9083C83.7248 84.9083 83.7248 84.9083 83.7248 84.9083C83.7248 84.9083 83.7248 84.9083 83.7248 84.9083C83.7247 84.9083 83.7247 84.9083 83.7247 84.9083C83.7247 84.9083 83.7247 84.9083 83.7247 84.9083C83.7247 84.9083 83.7247 84.9083 83.7247 84.9083C83.7247 84.9083 83.7247 84.9083 83.7247 84.9083C83.7247 84.9083 83.7247 84.9083 83.7247 84.9083C83.7247 84.9083 83.7247 84.9083 83.7247 84.9083C83.7247 84.9083 83.7246 84.9083 83.7246 84.9083C83.7246 84.9083 83.7246 84.9083 83.7246 84.9083C83.7246 84.9083 83.7246 84.9083 83.7246 84.9083C83.7246 84.9083 83.7246 84.9083 83.7246 84.9083C83.7246 84.9083 83.7246 84.9083 83.7246 84.9083C83.7246 84.9083 83.7246 84.9083 83.7246 84.9083C83.7245 84.9083 83.7245 84.9083 83.7245 84.9083C83.7245 84.9083 83.7245 84.9083 83.7245 84.9083C83.7245 84.9083 83.7245 84.9083 83.7245 84.9083C83.7245 84.9083 83.7245 84.9083 83.7245 84.9083C83.7245 84.9083 83.7245 84.9083 83.7245 84.9083C83.7244 84.9083 83.7244 84.9083 83.7244 84.9083C83.7244 84.9083 83.7244 84.9083 83.7244 84.9083C83.7244 84.9083 83.7244 84.9083 83.7244 84.9083C83.7244 84.9083 83.7244 84.9083 83.7244 84.9083C83.7244 84.9083 83.7243 84.9083 83.7243 84.9083C83.7243 84.9083 83.7243 84.9083 83.7243 84.9083C83.7243 84.9083 83.7243 84.9083 83.7243 84.9083C83.7243 84.9083 83.7243 84.9083 83.7243 84.9083C83.7243 84.9083 83.7242 84.9083 83.7242 84.9083C83.7242 84.9083 83.7242 84.9083 83.7242 84.9083C83.7242 84.9083 83.7242 84.9083 83.7242 84.9083C83.7242 84.9083 83.7242 84.9083 83.7242 84.9083C83.7242 84.9083 83.7241 84.9083 83.7241 84.9083C83.7241 84.9083 83.7241 84.9083 83.7241 84.9083C83.7241 84.9083 83.7241 84.9083 83.7241 84.9083C83.7241 84.9083 83.7241 84.9083 83.7241 84.9083C83.724 84.9083 83.724 84.9083 83.724 84.9083C83.724 84.9083 83.724 84.9083 83.724 84.9083C83.724 84.9083 83.724 84.9083 83.724 84.9083C83.724 84.9083 83.7239 84.9083 83.7239 84.9083C83.7239 84.9083 83.7239 84.9083 83.7239 84.9083C83.7239 84.9083 83.7239 84.9083 83.7239 84.9083C83.7239 84.9083 83.7239 84.9083 83.7238 84.9083C83.7238 84.9083 83.7238 84.9083 83.7238 84.9083C83.7238 84.9083 83.7238 84.9083 83.7238 84.9083C83.7238 84.9083 83.7238 84.9083 83.7237 84.9083C83.7237 84.9083 83.7237 84.9083 83.7237 84.9083C83.7237 84.9083 83.7237 84.9083 83.7237 84.9083C83.7237 84.9083 83.7237 84.9083 83.7236 84.9083C83.7236 84.9083 83.7236 84.9083 83.7236 84.9083C83.7236 84.9083 83.7236 84.9083 83.7236 84.9083C83.7236 84.9083 83.7236 84.9083 83.7235 84.9083C83.7235 84.9083 83.7235 84.9083 83.7235 84.9083C83.7235 84.9083 83.7235 84.9083 83.7235 84.9083C83.7235 84.9083 83.7234 84.9083 83.7234 84.9083C83.7234 84.9083 83.7234 84.9083 83.7234 84.9083C83.7234 84.9083 83.7234 84.9083 83.7234 84.9083C83.7233 84.9083 83.7233 84.9083 83.7233 84.9083C83.7233 84.9083 83.7233 84.9083 83.7233 84.9083C83.7233 84.9083 83.7233 84.9083 83.7232 84.9083C83.7232 84.9083 83.7232 84.9083 83.7232 84.9083C83.7232 84.9083 83.7232 84.9083 83.7232 84.9083C83.7231 84.9083 83.7231 84.9083 83.7231 84.9083C83.7231 84.9083 83.7231 84.9083 83.7231 84.9083C83.7231 84.9083 83.7231 84.9083 83.723 84.9083C83.723 84.9083 83.723 84.9083 83.723 84.9083C83.723 84.9083 83.723 84.9083 83.723 84.9083C83.7229 84.9083 83.7229 84.9083 83.7229 84.9083C83.7229 84.9083 83.7229 84.9083 83.7229 84.9083C83.7229 84.9083 83.7228 84.9083 83.7228 84.9083C83.7228 84.9083 83.7228 84.9083 83.7228 84.9083C83.7228 84.9083 83.7228 84.9083 83.7227 84.9083C83.7227 84.9083 83.7227 84.9083 83.7227 84.9083C83.7227 84.9083 83.7227 84.9083 83.7226 84.9083C83.7226 84.9083 83.7226 84.9083 83.7226 84.9083C83.7226 84.9083 83.7226 84.9083 83.7226 84.9083C83.7225 84.9083 83.7225 84.9083 83.7225 84.9083C83.7225 84.9083 83.7225 84.9083 83.7225 84.9083C83.7224 84.9083 83.7224 84.9083 83.7224 84.9083C83.7224 84.9083 83.7224 84.9083 83.7224 84.9083C83.7224 84.9083 83.7223 84.9083 83.7223 84.9083C83.7223 84.9083 83.7223 84.9083 83.7223 84.9083C83.7223 84.9083 83.7222 84.9083 83.7222 84.9083C83.7222 84.9083 83.7222 84.9083 83.7222 84.9083C83.7222 84.9083 83.7221 84.9083 83.7221 84.9083C83.7221 84.9083 83.7221 84.9083 83.7221 84.9083C83.7221 84.9083 83.722 84.9083 83.722 84.9083C83.722 84.9083 83.722 84.9083 83.722 84.9083C83.722 84.9083 83.7219 84.9083 83.7219 84.9083C83.7219 84.9083 83.7219 84.9083 83.7219 84.9083C83.7218 84.9083 83.7218 84.9083 83.7218 84.9083C83.7218 84.9083 83.7218 84.9083 83.7218 84.9083C83.7217 84.9083 83.7217 84.9083 83.7217 84.9083C83.7217 84.9083 83.7217 84.9083 83.7217 84.9083C83.7216 84.9083 83.7216 84.9083 83.7216 84.9083C83.7216 84.9083 83.7216 84.9083 83.7215 84.9083C83.7215 84.9083 83.7215 84.9083 83.7215 84.9083C83.7215 84.9083 83.7214 84.9083 83.7214 84.9083C83.7214 84.9083 83.7214 84.9083 83.7214 84.9083C83.7214 84.9083 83.7213 84.9083 83.7213 84.9083C83.7213 84.9083 83.7213 84.9083 83.7213 84.9083C83.7212 84.9083 83.7212 84.9083 83.7212 84.9083C83.7212 84.9083 83.7212 84.9083 83.7211 84.9083C83.7211 84.9083 83.7211 84.9083 83.7211 84.9083C83.7211 84.9083 83.721 84.9083 83.721 84.9083C83.721 84.9083 83.721 84.9083 83.721 84.9083C83.7209 84.9083 83.7209 84.9083 83.7209 84.9083C83.7209 84.9083 83.7209 84.9083 83.7208 84.9083C83.7208 84.9083 83.7208 84.9083 83.7208 84.9083C83.7208 84.9083 83.7207 84.9083 83.7207 84.9083C83.7207 84.9083 83.7207 84.9083 83.7207 84.9083C83.7206 84.9083 83.7206 84.9083 83.7206 84.9083C83.7206 84.9083 83.7206 84.9083 83.7205 84.9083C83.7205 84.9083 83.7205 84.9083 83.7205 84.9083C83.7205 84.9083 83.7204 84.9083 83.7204 84.9083C83.7204 84.9083 83.7204 84.9083 83.7203 84.9083C83.7203 84.9083 83.7203 84.9083 83.7203 84.9083C83.7203 84.9083 83.7202 84.9083 83.7202 84.9083C83.7202 84.9083 83.7202 84.9083 83.7202 84.9083C83.7201 84.9083 83.7201 84.9083 83.7201 84.9083C83.7201 84.9083 83.72 84.9083 83.72 84.9083C83.72 84.9083 83.72 84.9083 83.72 84.9083C83.7199 84.9083 83.7199 84.9083 83.7199 84.9083C83.7199 84.9083 83.7198 84.9083 83.7198 84.9083C83.7198 84.9083 83.7198 84.9083 83.7198 84.9083C83.7197 84.9083 83.7197 84.9083 83.7197 84.9083C83.7197 84.9083 83.7196 84.9083 83.7196 84.9083C83.7196 84.9083 83.7196 84.9083 83.7195 84.9083C83.7195 84.9083 83.7195 84.9083 83.7195 84.9083C83.7195 84.9083 83.7194 84.9083 83.7194 84.9083C83.7194 84.9083 83.7194 84.9083 83.7193 84.9083C83.7193 84.9083 83.7193 84.9083 83.7193 84.9083C83.7192 84.9083 83.7192 84.9083 83.7192 84.9083C83.7192 84.9083 83.7191 84.9083 83.7191 84.9083C83.7191 84.9083 83.7191 84.9083 83.719 84.9083C83.719 84.9083 83.719 84.9083 83.719 84.9083C83.719 84.9083 83.7189 84.9083 83.7189 84.9083C83.7189 84.9083 83.7189 84.9083 83.7188 84.9083C83.7188 84.9083 83.7188 84.9083 83.7188 84.9083C83.7187 84.9083 83.7187 84.9083 83.7187 84.9083C83.7187 84.9083 83.7186 84.9083 83.7186 84.9083C83.7186 84.9083 83.7186 84.9083 83.7185 84.9083C83.7185 84.9083 83.7185 84.9083 83.7185 84.9083C83.7184 84.9083 83.7184 84.9083 83.7184 84.9083C83.7184 84.9083 83.7183 84.9083 83.7183 84.9083C83.7183 84.9083 83.7182 84.9083 83.7182 84.9083C83.7182 84.9083 83.7182 84.9083 83.7181 84.9083C83.7181 84.9083 83.7181 84.9083 83.7181 84.9083C83.718 84.9083 83.718 84.9083 83.718 84.9083C83.718 84.9083 83.7179 84.9083 83.7179 84.9083C83.7179 84.9083 83.7179 84.9083 83.7178 84.9083C83.7178 84.9083 83.7178 84.9083 83.7177 84.9083C83.7177 84.9083 83.7177 84.9083 83.7177 84.9083C83.7176 84.9083 83.7176 84.9083 83.7176 84.9083C83.7176 84.9083 83.7175 84.9083 83.7175 84.9083C83.7175 84.9083 83.7175 84.9083 83.7174 84.9083C83.7174 84.9083 83.7174 84.9083 83.7173 84.9083C83.7173 84.9083 83.7173 84.9083 83.7173 84.9083C83.7172 84.9083 83.7172 84.9083 83.7172 84.9083C83.7171 84.9083 83.7171 84.9083 83.7171 84.9083C83.7171 84.9083 83.717 84.9083 83.717 84.9083C83.717 84.9083 83.717 84.9083 83.7169 84.9083C83.7169 84.9083 83.7169 84.9083 83.7168 84.9083C83.7168 84.9083 83.7168 84.9083 83.7168 84.9083C83.7167 84.9083 83.7167 84.9083 83.7167 84.9083C83.7166 84.9083 83.7166 84.9083 83.7166 84.9083C83.7166 84.9083 83.7165 84.9083 83.7165 84.9083C83.7165 84.9083 83.7164 84.9083 83.7164 84.9083C83.7164 84.9083 83.7164 84.9083 83.7163 84.9083C83.7163 84.9083 83.7163 84.9083 83.7162 84.9083C83.7162 84.9083 83.7162 84.9083 83.7161 84.9083C83.7161 84.9083 83.7161 84.9083 83.7161 84.9083C83.716 84.9083 83.716 84.9083 83.716 84.9083C83.7159 84.9083 83.7159 84.9083 83.7159 84.9083C83.7158 84.9083 83.7158 84.9083 83.7158 84.9083C83.7158 84.9083 83.7157 84.9083 83.7157 84.9083C83.7157 84.9083 83.7156 84.9083 83.7156 84.9083C83.7156 84.9083 83.7155 84.9083 83.7155 84.9083C83.7155 84.9083 83.7155 84.9083 83.7154 84.9083C83.7154 84.9083 83.7154 84.9083 83.7153 84.9083C83.7153 84.9083 83.7153 84.9083 83.7152 84.9083C83.7152 84.9083 83.7152 84.9083 83.7151 84.9083C83.7151 84.9083 83.7151 84.9083 83.7151 84.9083C83.715 84.9083 83.715 84.9083 83.715 84.9083C83.7149 84.9083 83.7149 84.9083 83.7149 84.9083C83.7148 84.9083 83.7148 84.9083 83.7148 84.9083C83.7147 84.9083 83.7147 84.9083 83.7147 84.9083C83.7146 84.9083 83.7146 84.9083 83.7146 84.9083C83.7145 84.9083 83.7145 84.9083 83.7145 84.9083C83.7144 84.9083 83.7144 84.9083 83.7144 84.9083C83.7143 84.9083 83.7143 84.9083 83.7143 84.9083C83.7143 84.9083 83.7142 84.9083 83.7142 84.9083C83.7142 84.9083 83.7141 84.9083 83.7141 84.9083C83.7141 84.9083 83.714 84.9083 83.714 84.9083C83.714 84.9083 83.7139 84.9083 83.7139 84.9083C83.7139 84.9083 83.7138 84.9083 83.7138 84.9083C83.7138 84.9083 83.7137 84.9083 83.7137 84.9083C83.7137 84.9083 83.7136 84.9083 83.7136 84.9083C83.7136 84.9083 83.7135 84.9083 83.7135 84.9083C83.7135 84.9083 83.7134 84.9083 83.7134 84.9083C83.7134 84.9083 83.7133 84.9083 83.7133 84.9083C83.7133 84.9083 83.7132 84.9083 83.7132 84.9083C83.7132 84.9083 83.7131 84.9083 83.7131 84.9083C83.713 84.9083 83.713 84.9083 83.713 84.9083C83.7129 84.9083 83.7129 84.9083 83.7129 84.9083C83.7128 84.9083 83.7128 84.9083 83.7128 84.9083C83.7127 84.9083 83.7127 84.9083 83.7127 84.9083C83.7126 84.9083 83.7126 84.9083 83.7126 84.9083C83.7125 84.9083 83.7125 84.9083 83.7125 84.9083C83.7124 84.9083 83.7124 84.9083 83.7124 84.9083C83.7123 84.9083 83.7123 84.9083 83.7122 84.9083C83.7122 84.9083 83.7122 84.9083 83.7121 84.9083C83.7121 84.9083 83.7121 84.9083 83.712 84.9083C83.712 84.9083 83.712 84.9083 83.7119 84.9083C83.7119 84.9083 83.7119 84.9083 83.7118 84.9083C83.7118 84.9083 83.7117 84.9083 83.7117 84.9083C83.7117 84.9083 83.7116 84.9083 83.7116 84.9083C83.7116 84.9083 83.7115 84.9083 83.7115 84.9083C83.7115 84.9083 83.7114 84.9083 83.7114 84.9083C83.7113 84.9083 83.7113 84.9083 83.7113 84.9083C83.7112 84.9083 83.7112 84.9083 83.7112 84.9083C83.7111 84.9083 83.7111 84.9083 83.711 84.9083C83.711 84.9083 83.711 84.9083 83.7109 84.9083C83.7109 84.9083 83.7109 84.9083 83.7108 84.9083C83.7108 84.9083 83.7107 84.9083 83.7107 84.9083C83.7107 84.9083 83.7106 84.9083 83.7106 84.9083C83.7106 84.9083 83.7105 84.9083 83.7105 84.9083C83.7104 84.9083 83.7104 84.9083 83.7104 84.9083C83.7103 84.9083 83.7103 84.9083 83.7103 84.9083C83.7102 84.9083 83.7102 84.9083 83.7101 84.9083C83.7101 84.9083 83.7101 84.9083 83.71 84.9083C83.71 84.9083 83.7099 84.9083 83.7099 84.9083C83.7099 84.9083 83.7098 84.9083 83.7098 84.9083C83.7098 84.9083 83.7097 84.9083 83.7097 84.9083C83.7096 84.9083 83.7096 84.9083 83.7096 84.9083C83.7095 84.9083 83.7095 84.9083 83.7094 84.9083C83.7094 84.9083 83.7094 84.9083 83.7093 84.9083C83.7093 84.9083 83.7092 84.9083 83.7092 84.9083C83.7092 84.9083 83.7091 84.9083 83.7091 84.9083C83.7091 84.9083 83.709 84.9083 83.709 84.9083C83.7089 84.9083 83.7089 84.9083 83.7089 84.9083C83.7088 84.9083 83.7088 84.9083 83.7087 84.9083C83.7087 84.9083 83.7087 84.9083 83.7086 84.9083C83.7086 84.9083 83.7085 84.9083 83.7085 84.9083C83.7084 84.9083 83.7084 84.9083 83.7084 84.9083C83.7083 84.9083 83.7083 84.9083 83.7082 84.9083C83.7082 84.9083 83.7082 84.9083 83.7081 84.9083C83.7081 84.9083 83.708 84.9083 83.708 84.9083C83.708 84.9083 83.7079 84.9083 83.7079 84.9083C83.7078 84.9083 83.7078 84.9083 83.7078 84.9083C83.7077 84.9083 83.7077 84.9083 83.7076 84.9083C83.7076 84.9083 83.7075 84.9083 83.7075 84.9083C83.7075 84.9083 83.7074 84.9083 83.7074 84.9083C83.7073 84.9083 83.7073 84.9083 83.7073 84.9083C83.7072 84.9083 83.7072 84.9083 83.7071 84.9083C83.7071 84.9083 83.707 84.9083 83.707 84.9083C83.707 84.9083 83.7069 84.9083 83.7069 84.9083C83.7068 84.9083 83.7068 84.9083 83.7068 84.9083C83.7067 84.9083 83.7067 84.9083 83.7066 84.9083C83.7066 84.9083 83.7065 84.9083 83.7065 84.9083C83.7065 84.9083 83.7064 84.9083 83.7064 84.9083C83.7063 84.9083 83.7063 84.9083 83.7062 84.9083C83.7062 84.9083 83.7062 84.9083 83.7061 84.9083C83.7061 84.9083 83.706 84.9083 83.706 84.9083C83.7059 84.9083 83.7059 84.9083 83.7058 84.9083C83.7058 84.9083 83.7058 84.9083 83.7057 84.9083C83.7057 84.9083 83.7056 84.9083 83.7056 84.9083C83.7055 84.9083 83.7055 84.9083 83.7055 84.9083C83.7054 84.9083 83.7054 84.9083 83.7053 84.9083C83.7053 84.9083 83.7052 84.9083 83.7052 84.9083C83.7051 84.9083 83.7051 84.9083 83.7051 84.9083C83.705 84.9083 83.705 84.9083 83.7049 84.9083C83.7049 84.9083 83.7048 84.9083 83.7048 84.9083C83.7047 84.9083 83.7047 84.9083 83.7047 84.9083C83.7046 84.9083 83.7046 84.9083 83.7045 84.9083C83.7045 84.9083 83.7044 84.9083 83.7044 84.9083C83.7043 84.9083 83.7043 84.9083 83.7043 84.9083C83.7042 84.9083 83.7042 84.9083 83.7041 84.9083C83.7041 84.9083 83.704 84.9083 83.704 84.9083C83.7039 84.9083 83.7039 84.9083 83.7038 84.9083C83.7038 84.9083 83.7038 84.9083 83.7037 84.9083C83.7037 84.9083 83.7036 84.9083 83.7036 84.9083C83.7035 84.9083 83.7035 84.9083 83.7034 84.9083C83.7034 84.9083 83.7033 84.9083 83.7033 84.9083C83.7032 84.9083 83.7032 84.9083 83.7032 84.9083C83.7031 84.9083 83.7031 84.9083 83.703 84.9083C83.703 84.9083 83.7029 84.9083 83.7029 84.9083C83.7028 84.9083 83.7028 84.9083 83.7027 84.9083C83.7027 84.9083 83.7026 84.9083 83.7026 84.9083C83.7025 84.9083 83.7025 84.9083 83.7024 84.9083C83.7024 84.9083 83.7024 84.9083 83.7023 84.9083C83.7023 84.9083 83.7022 84.9083 83.7022 84.9083C83.7021 84.9083 83.7021 84.9083 83.702 84.9083C83.702 84.9083 83.7019 84.9083 83.7019 84.9083C83.7018 84.9083 83.7018 84.9083 83.7017 84.9083C83.7017 84.9083 83.7016 84.9083 83.7016 84.9083C83.7015 84.9083 83.7015 84.9083 83.7014 84.9083C83.7014 84.9083 83.7013 84.9083 83.7013 84.9083C83.7013 84.9083 83.7012 84.9083 83.7012 84.9083C83.7011 84.9083 83.7011 84.9083 83.701 84.9083C83.701 84.9083 83.7009 84.9083 83.7009 84.9083C83.7008 84.9083 83.7008 84.9083 83.7007 84.9083C83.7007 84.9083 83.7006 84.9083 83.7006 84.9083C83.7005 84.9083 83.7005 84.9083 83.7004 84.9083C83.7004 84.9083 83.7003 84.9083 83.7003 84.9083C83.7002 84.9083 83.7002 84.9083 83.7001 84.9083C83.7001 84.9083 83.7 84.9083 83.7 84.9083C83.6999 84.9083 83.6999 84.9083 83.6998 84.9083C83.6998 84.9083 83.6997 84.9083 83.6997 84.9083C83.6996 84.9083 83.6996 84.9083 83.6995 84.9083C83.6995 84.9083 83.6994 84.9083 83.6994 84.9083C83.6993 84.9083 83.6993 84.9083 83.6992 84.9083C83.6992 84.9083 83.6991 84.9083 83.6991 84.9083C83.699 84.9083 83.699 84.9083 83.6989 84.9083C83.6989 84.9083 83.6988 84.9083 83.6988 84.9083C83.6987 84.9083 83.6987 84.9083 83.6986 84.9083C83.6986 84.9083 83.6985 84.9083 83.6985 84.9083C83.6984 84.9083 83.6984 84.9083 83.6983 84.9083C83.6983 84.9083 83.6982 84.9083 83.6982 84.9083C83.6981 84.9083 83.6981 84.9083 83.698 84.9083C83.6979 84.9083 83.6979 84.9083 83.6978 84.9083C83.6978 84.9083 83.6977 84.9083 83.6977 84.9083C83.6976 84.9083 83.6976 84.9083 83.6975 84.9083C83.6975 84.9083 83.6974 84.9083 83.6974 84.9083C83.6973 84.9083 83.6973 84.9083 83.6972 84.9083C83.6972 84.9083 83.6971 84.9083 83.6971 84.9083C83.697 84.9083 83.697 84.9083 83.6969 84.9083C83.6969 84.9083 83.6968 84.9083 83.6967 84.9083C83.6967 84.9083 83.6966 84.9083 83.6966 84.9083C83.6965 84.9083 83.6965 84.9083 83.6964 84.9083C83.6964 84.9083 83.6963 84.9083 83.6963 84.9083C83.6962 84.9083 83.6962 84.9083 83.6961 84.9083C83.6961 84.9083 83.696 84.9083 83.6959 84.9083C83.6959 84.9083 83.6958 84.9083 83.6958 84.9083C83.6957 84.9083 83.6957 84.9083 83.6956 84.9083C83.6956 84.9083 83.6955 84.9083 83.6955 84.9083C83.6954 84.9083 83.6954 84.9083 83.6953 84.9083C83.6952 84.9083 83.6952 84.9083 83.6951 84.9083C83.6951 84.9083 83.695 84.9083 83.695 84.9083C83.6949 84.9083 83.6949 84.9083 83.6948 84.9083C83.6948 84.9083 83.6947 84.9083 83.6946 84.9083C83.6946 84.9083 83.6945 84.9083 83.6945 84.9083C83.6944 84.9083 83.6944 84.9083 83.6943 84.9083C83.6943 84.9083 83.6942 84.9083 83.6942 84.9083C83.6941 84.9083 83.694 84.9083 83.694 84.9083C83.6939 84.9083 83.6939 84.9083 83.6938 84.9083C83.6938 84.9083 83.6937 84.9083 83.6937 84.9083C83.6936 84.9083 83.6935 84.9083 83.6935 84.9083C83.6934 84.9083 83.6934 84.9083 83.6933 84.9083C83.6933 84.9083 83.6932 84.9083 83.6932 84.9083C83.6931 84.9083 83.693 84.9083 83.693 84.9083C83.6929 84.9083 83.6929 84.9083 83.6928 84.9083C83.6928 84.9083 83.6927 84.9083 83.6926 84.9083C83.6926 84.9083 83.6925 84.9083 83.6925 84.9083C83.6924 84.9083 83.6924 84.9083 83.6923 84.9083C83.6922 84.9083 83.6922 84.9083 83.6921 84.9083C83.6921 84.9083 83.692 84.9083 83.692 84.9083C83.6919 84.9083 83.6918 84.9083 83.6918 84.9083C83.6917 84.9083 83.6917 84.9083 83.6916 84.9083C83.6916 84.9083 83.6915 84.9083 83.6914 84.9083C83.6914 84.9083 83.6913 84.9083 83.6913 84.9083C83.6912 84.9083 83.6912 84.9083 83.6911 84.9083C83.691 84.9083 83.691 84.9083 83.6909 84.9083C83.6909 84.9083 83.6908 84.9083 83.6908 84.9083C83.6907 84.9083 83.6906 84.9083 83.6906 84.9083C83.6905 84.9083 83.6905 84.9083 83.6904 84.9083C83.6903 84.9083 83.6903 84.9083 83.6902 84.9083C83.6902 84.9083 83.6901 84.9083 83.6901 84.9083C83.69 84.9083 83.6899 84.9083 83.6899 84.9083C83.6898 84.9083 83.6898 84.9083 83.6897 84.9083C83.6896 84.9083 83.6896 84.9083 83.6895 84.9083C83.6895 84.9083 83.6894 84.9083 83.6893 84.9083C83.6893 84.9083 83.6892 84.9083 83.6892 84.9083C83.6891 84.9083 83.689 84.9083 83.689 84.9083C83.6889 84.9083 83.6889 84.9083 83.6888 84.9083C83.6887 84.9083 83.6887 84.9083 83.6886 84.9083C83.6886 84.9083 83.6885 84.9083 83.6884 84.9083C83.6884 84.9083 83.6883 84.9083 83.6883 84.9083C83.6882 84.9083 83.6881 84.9083 83.6881 84.9083C83.688 84.9083 83.688 84.9083 83.6879 84.9083C83.6878 84.9083 83.6878 84.9083 83.6877 84.9083C83.6877 84.9083 83.6876 84.9083 83.6875 84.9083C83.6875 84.9083 83.6874 84.9083 83.6874 84.9083C83.6873 84.9083 83.6872 84.9083 83.6872 84.9083C83.6871 84.9083 83.6871 84.9083 83.687 84.9083C83.6869 84.9083 83.6869 84.9083 83.6868 84.9083C83.6867 84.9083 83.6867 84.9083 83.6866 84.9083C83.6866 84.9083 83.6865 84.9083 83.6864 84.9083C83.6864 84.9083 83.6863 84.9083 83.6863 84.9083C83.6862 84.9083 83.6861 84.9083 83.6861 84.9083C83.686 84.9083 83.6859 84.9083 83.6859 84.9083C83.6858 84.9083 83.6858 84.9083 83.6857 84.9083C83.6856 84.9083 83.6856 84.9083 83.6855 84.9083C83.6854 84.9083 83.6854 84.9083 83.6853 84.9083C83.6853 84.9083 83.6852 84.9083 83.6851 84.9083C83.6851 84.9083 83.685 84.9083 83.6849 84.9083C83.6849 84.9083 83.6848 84.9083 83.6848 84.9083C83.6847 84.9083 83.6846 84.9083 83.6846 84.9083C83.6845 84.9083 83.6844 84.9083 83.6844 84.9083C83.6843 84.9083 83.6842 84.9083 83.6842 84.9083C83.6841 84.9083 83.6841 84.9083 83.684 84.9083C83.6839 84.9083 83.6839 84.9083 83.6838 84.9083C83.6837 84.9083 83.6837 84.9083 83.6836 84.9083C83.6835 84.9083 83.6835 84.9083 83.6834 84.9083C83.6834 84.9083 83.6833 84.9083 83.6832 84.9083C83.6832 84.9083 83.6831 84.9083 83.683 84.9083C83.683 84.9083 83.6829 84.9083 83.6828 84.9083C83.6828 84.9083 83.6827 84.9083 83.6826 84.9083C83.6826 84.9083 83.6825 84.9083 83.6824 84.9083C83.6824 84.9083 83.6823 84.9083 83.6823 84.9083C83.6822 84.9083 83.6821 84.9083 83.6821 84.9083C83.682 84.9083 83.6819 84.9083 83.6819 84.9083C83.6818 84.9083 83.6817 84.9083 83.6817 84.9083C83.6816 84.9083 83.6815 84.9083 83.6815 84.9083C83.6814 84.9083 83.6813 84.9083 83.6813 84.9083C83.6812 84.9083 83.6811 84.9083 83.6811 84.9083C83.681 84.9083 83.6809 84.9083 83.6809 84.9083C83.6808 84.9083 83.6807 84.9083 83.6807 84.9083C83.6806 84.9083 83.6805 84.9083 83.6805 84.9083C83.6804 84.9083 83.6803 84.9083 83.6803 84.9083C83.6802 84.9083 83.6802 84.9083 83.6801 84.9083C83.68 84.9083 83.68 84.9083 83.6799 84.9083C83.6798 84.9083 83.6797 84.9083 83.6797 84.9083C83.6796 84.9083 83.6795 84.9083 83.6795 84.9083C83.6794 84.9083 83.6793 84.9083 83.6793 84.9083C83.6792 84.9083 83.6791 84.9083 83.6791 84.9083C83.679 84.9083 83.6789 84.9083 83.6789 84.9083C83.6788 84.9083 83.6787 84.9083 83.6787 84.9083C83.6786 84.9083 83.6785 84.9083 83.6785 84.9083C83.6784 84.9083 83.6783 84.9083 83.6783 84.9083C83.6782 84.9083 83.6781 84.9083 83.6781 84.9083C83.678 84.9083 83.6779 84.9083 83.6779 84.9083C83.6778 84.9083 83.6777 84.9083 83.6777 84.9083C83.6776 84.9083 83.6775 84.9083 83.6774 84.9083C83.6774 84.9083 83.6773 84.9083 83.6772 84.9083C83.6772 84.9083 83.6771 84.9083 83.677 84.9083C83.677 84.9083 83.6769 84.9083 83.6768 84.9083C83.6768 84.9083 83.6767 84.9083 83.6766 84.9083C83.6766 84.9083 83.6765 84.9083 83.6764 84.9083C83.6763 84.9083 83.6763 84.9083 83.6762 84.9083C83.6761 84.9083 83.6761 84.9083 83.676 84.9083C83.6759 84.9083 83.6759 84.9083 83.6758 84.9083C83.6757 84.9083 83.6756 84.9083 83.6756 84.9083C83.6755 84.9083 83.6754 84.9083 83.6754 84.9083C83.6753 84.9083 83.6752 84.9083 83.6752 84.9083C83.6751 84.9083 83.675 84.9083 83.6749 84.9083C83.6749 84.9083 83.6748 84.9083 83.6747 84.9083C83.6747 84.9083 83.6746 84.9083 83.6745 84.9083C83.6745 84.9083 83.6744 84.9083 83.6743 84.9083C83.6742 84.9083 83.6742 84.9083 83.6741 84.9083C83.674 84.9083 83.674 84.9083 83.6739 84.9083C83.6738 84.9083 83.6737 84.9083 83.6737 84.9083C83.6736 84.9083 83.6735 84.9083 83.6735 84.9083C83.6734 84.9083 83.6733 84.9083 83.6732 84.9083C83.6732 84.9083 83.6731 84.9083 83.673 84.9083C83.673 84.9083 83.6729 84.9083 83.6728 84.9083C83.6727 84.9083 83.6727 84.9083 83.6726 84.9083C83.6725 84.9083 83.6725 84.9083 83.6724 84.9083C83.6723 84.9083 83.6722 84.9083 83.6722 84.9083C83.6721 84.9083 83.672 84.9083 83.672 84.9083C83.6719 84.9083 83.6718 84.9083 83.6717 84.9083C83.6717 84.9083 83.6716 84.9083 83.6715 84.9083C83.6714 84.9083 83.6714 84.9083 83.6713 84.9083C83.6712 84.9083 83.6712 84.9083 83.6711 84.9083C83.671 84.9083 83.6709 84.9083 83.6709 84.9083C83.6708 84.9083 83.6707 84.9083 83.6706 84.9083C83.6706 84.9083 83.6705 84.9083 83.6704 84.9083C83.6703 84.9083 83.6703 84.9083 83.6702 84.9083C83.6701 84.9083 83.6701 84.9083 83.67 84.9083C83.6699 84.9083 83.6698 84.9083 83.6698 84.9083C83.6697 84.9083 83.6696 84.9083 83.6695 84.9083C83.6695 84.9083 83.6694 84.9083 83.6693 84.9083C83.6692 84.9083 83.6692 84.9083 83.6691 84.9083C83.669 84.9083 83.6689 84.9083 83.6689 84.9083C83.6688 84.9083 83.6687 84.9083 83.6686 84.9083C83.6686 84.9083 83.6685 84.9083 83.6684 84.9083C83.6683 84.9083 83.6683 84.9083 83.6682 84.9083C83.6681 84.9083 83.668 84.9083 83.668 84.9083C83.6679 84.9083 83.6678 84.9083 83.6677 84.9083C83.6677 84.9083 83.6676 84.9083 83.6675 84.9083C83.6674 84.9083 83.6674 84.9083 83.6673 84.9083C83.6672 84.9083 83.6671 84.9083 83.6671 84.9083C83.667 84.9083 83.6669 84.9083 83.6668 84.9083C83.6668 84.9083 83.6667 84.9083 83.6666 84.9083V86.9083C83.6667 86.9083 83.6668 86.9083 83.6668 86.9083C83.6669 86.9083 83.667 86.9083 83.6671 86.9083C83.6671 86.9083 83.6672 86.9083 83.6673 86.9083C83.6674 86.9083 83.6674 86.9083 83.6675 86.9083C83.6676 86.9083 83.6677 86.9083 83.6677 86.9083C83.6678 86.9083 83.6679 86.9083 83.668 86.9083C83.668 86.9083 83.6681 86.9083 83.6682 86.9083C83.6683 86.9083 83.6683 86.9083 83.6684 86.9083C83.6685 86.9083 83.6686 86.9083 83.6686 86.9083C83.6687 86.9083 83.6688 86.9083 83.6689 86.9083C83.6689 86.9083 83.669 86.9083 83.6691 86.9083C83.6692 86.9083 83.6692 86.9083 83.6693 86.9083C83.6694 86.9083 83.6695 86.9083 83.6695 86.9083C83.6696 86.9083 83.6697 86.9083 83.6698 86.9083C83.6698 86.9083 83.6699 86.9083 83.67 86.9083C83.6701 86.9083 83.6701 86.9083 83.6702 86.9083C83.6703 86.9083 83.6703 86.9083 83.6704 86.9083C83.6705 86.9083 83.6706 86.9083 83.6706 86.9083C83.6707 86.9083 83.6708 86.9083 83.6709 86.9083C83.6709 86.9083 83.671 86.9083 83.6711 86.9083C83.6712 86.9083 83.6712 86.9083 83.6713 86.9083C83.6714 86.9083 83.6714 86.9083 83.6715 86.9083C83.6716 86.9083 83.6717 86.9083 83.6717 86.9083C83.6718 86.9083 83.6719 86.9083 83.672 86.9083C83.672 86.9083 83.6721 86.9083 83.6722 86.9083C83.6722 86.9083 83.6723 86.9083 83.6724 86.9083C83.6725 86.9083 83.6725 86.9083 83.6726 86.9083C83.6727 86.9083 83.6727 86.9083 83.6728 86.9083C83.6729 86.9083 83.673 86.9083 83.673 86.9083C83.6731 86.9083 83.6732 86.9083 83.6732 86.9083C83.6733 86.9083 83.6734 86.9083 83.6735 86.9083C83.6735 86.9083 83.6736 86.9083 83.6737 86.9083C83.6737 86.9083 83.6738 86.9083 83.6739 86.9083C83.674 86.9083 83.674 86.9083 83.6741 86.9083C83.6742 86.9083 83.6742 86.9083 83.6743 86.9083C83.6744 86.9083 83.6745 86.9083 83.6745 86.9083C83.6746 86.9083 83.6747 86.9083 83.6747 86.9083C83.6748 86.9083 83.6749 86.9083 83.6749 86.9083C83.675 86.9083 83.6751 86.9083 83.6752 86.9083C83.6752 86.9083 83.6753 86.9083 83.6754 86.9083C83.6754 86.9083 83.6755 86.9083 83.6756 86.9083C83.6756 86.9083 83.6757 86.9083 83.6758 86.9083C83.6759 86.9083 83.6759 86.9083 83.676 86.9083C83.6761 86.9083 83.6761 86.9083 83.6762 86.9083C83.6763 86.9083 83.6763 86.9083 83.6764 86.9083C83.6765 86.9083 83.6766 86.9083 83.6766 86.9083C83.6767 86.9083 83.6768 86.9083 83.6768 86.9083C83.6769 86.9083 83.677 86.9083 83.677 86.9083C83.6771 86.9083 83.6772 86.9083 83.6772 86.9083C83.6773 86.9083 83.6774 86.9083 83.6774 86.9083C83.6775 86.9083 83.6776 86.9083 83.6777 86.9083C83.6777 86.9083 83.6778 86.9083 83.6779 86.9083C83.6779 86.9083 83.678 86.9083 83.6781 86.9083C83.6781 86.9083 83.6782 86.9083 83.6783 86.9083C83.6783 86.9083 83.6784 86.9083 83.6785 86.9083C83.6785 86.9083 83.6786 86.9083 83.6787 86.9083C83.6787 86.9083 83.6788 86.9083 83.6789 86.9083C83.6789 86.9083 83.679 86.9083 83.6791 86.9083C83.6791 86.9083 83.6792 86.9083 83.6793 86.9083C83.6793 86.9083 83.6794 86.9083 83.6795 86.9083C83.6795 86.9083 83.6796 86.9083 83.6797 86.9083C83.6797 86.9083 83.6798 86.9083 83.6799 86.9083C83.68 86.9083 83.68 86.9083 83.6801 86.9083C83.6802 86.9083 83.6802 86.9083 83.6803 86.9083C83.6803 86.9083 83.6804 86.9083 83.6805 86.9083C83.6805 86.9083 83.6806 86.9083 83.6807 86.9083C83.6807 86.9083 83.6808 86.9083 83.6809 86.9083C83.6809 86.9083 83.681 86.9083 83.6811 86.9083C83.6811 86.9083 83.6812 86.9083 83.6813 86.9083C83.6813 86.9083 83.6814 86.9083 83.6815 86.9083C83.6815 86.9083 83.6816 86.9083 83.6817 86.9083C83.6817 86.9083 83.6818 86.9083 83.6819 86.9083C83.6819 86.9083 83.682 86.9083 83.6821 86.9083C83.6821 86.9083 83.6822 86.9083 83.6823 86.9083C83.6823 86.9083 83.6824 86.9083 83.6824 86.9083C83.6825 86.9083 83.6826 86.9083 83.6826 86.9083C83.6827 86.9083 83.6828 86.9083 83.6828 86.9083C83.6829 86.9083 83.683 86.9083 83.683 86.9083C83.6831 86.9083 83.6832 86.9083 83.6832 86.9083C83.6833 86.9083 83.6834 86.9083 83.6834 86.9083C83.6835 86.9083 83.6835 86.9083 83.6836 86.9083C83.6837 86.9083 83.6837 86.9083 83.6838 86.9083C83.6839 86.9083 83.6839 86.9083 83.684 86.9083C83.6841 86.9083 83.6841 86.9083 83.6842 86.9083C83.6842 86.9083 83.6843 86.9083 83.6844 86.9083C83.6844 86.9083 83.6845 86.9083 83.6846 86.9083C83.6846 86.9083 83.6847 86.9083 83.6848 86.9083C83.6848 86.9083 83.6849 86.9083 83.6849 86.9083C83.685 86.9083 83.6851 86.9083 83.6851 86.9083C83.6852 86.9083 83.6853 86.9083 83.6853 86.9083C83.6854 86.9083 83.6854 86.9083 83.6855 86.9083C83.6856 86.9083 83.6856 86.9083 83.6857 86.9083C83.6858 86.9083 83.6858 86.9083 83.6859 86.9083C83.6859 86.9083 83.686 86.9083 83.6861 86.9083C83.6861 86.9083 83.6862 86.9083 83.6863 86.9083C83.6863 86.9083 83.6864 86.9083 83.6864 86.9083C83.6865 86.9083 83.6866 86.9083 83.6866 86.9083C83.6867 86.9083 83.6867 86.9083 83.6868 86.9083C83.6869 86.9083 83.6869 86.9083 83.687 86.9083C83.6871 86.9083 83.6871 86.9083 83.6872 86.9083C83.6872 86.9083 83.6873 86.9083 83.6874 86.9083C83.6874 86.9083 83.6875 86.9083 83.6875 86.9083C83.6876 86.9083 83.6877 86.9083 83.6877 86.9083C83.6878 86.9083 83.6878 86.9083 83.6879 86.9083C83.688 86.9083 83.688 86.9083 83.6881 86.9083C83.6881 86.9083 83.6882 86.9083 83.6883 86.9083C83.6883 86.9083 83.6884 86.9083 83.6884 86.9083C83.6885 86.9083 83.6886 86.9083 83.6886 86.9083C83.6887 86.9083 83.6887 86.9083 83.6888 86.9083C83.6889 86.9083 83.6889 86.9083 83.689 86.9083C83.689 86.9083 83.6891 86.9083 83.6892 86.9083C83.6892 86.9083 83.6893 86.9083 83.6893 86.9083C83.6894 86.9083 83.6895 86.9083 83.6895 86.9083C83.6896 86.9083 83.6896 86.9083 83.6897 86.9083C83.6898 86.9083 83.6898 86.9083 83.6899 86.9083C83.6899 86.9083 83.69 86.9083 83.6901 86.9083C83.6901 86.9083 83.6902 86.9083 83.6902 86.9083C83.6903 86.9083 83.6903 86.9083 83.6904 86.9083C83.6905 86.9083 83.6905 86.9083 83.6906 86.9083C83.6906 86.9083 83.6907 86.9083 83.6908 86.9083C83.6908 86.9083 83.6909 86.9083 83.6909 86.9083C83.691 86.9083 83.691 86.9083 83.6911 86.9083C83.6912 86.9083 83.6912 86.9083 83.6913 86.9083C83.6913 86.9083 83.6914 86.9083 83.6914 86.9083C83.6915 86.9083 83.6916 86.9083 83.6916 86.9083C83.6917 86.9083 83.6917 86.9083 83.6918 86.9083C83.6918 86.9083 83.6919 86.9083 83.692 86.9083C83.692 86.9083 83.6921 86.9083 83.6921 86.9083C83.6922 86.9083 83.6922 86.9083 83.6923 86.9083C83.6924 86.9083 83.6924 86.9083 83.6925 86.9083C83.6925 86.9083 83.6926 86.9083 83.6926 86.9083C83.6927 86.9083 83.6928 86.9083 83.6928 86.9083C83.6929 86.9083 83.6929 86.9083 83.693 86.9083C83.693 86.9083 83.6931 86.9083 83.6932 86.9083C83.6932 86.9083 83.6933 86.9083 83.6933 86.9083C83.6934 86.9083 83.6934 86.9083 83.6935 86.9083C83.6935 86.9083 83.6936 86.9083 83.6937 86.9083C83.6937 86.9083 83.6938 86.9083 83.6938 86.9083C83.6939 86.9083 83.6939 86.9083 83.694 86.9083C83.694 86.9083 83.6941 86.9083 83.6942 86.9083C83.6942 86.9083 83.6943 86.9083 83.6943 86.9083C83.6944 86.9083 83.6944 86.9083 83.6945 86.9083C83.6945 86.9083 83.6946 86.9083 83.6946 86.9083C83.6947 86.9083 83.6948 86.9083 83.6948 86.9083C83.6949 86.9083 83.6949 86.9083 83.695 86.9083C83.695 86.9083 83.6951 86.9083 83.6951 86.9083C83.6952 86.9083 83.6952 86.9083 83.6953 86.9083C83.6954 86.9083 83.6954 86.9083 83.6955 86.9083C83.6955 86.9083 83.6956 86.9083 83.6956 86.9083C83.6957 86.9083 83.6957 86.9083 83.6958 86.9083C83.6958 86.9083 83.6959 86.9083 83.6959 86.9083C83.696 86.9083 83.6961 86.9083 83.6961 86.9083C83.6962 86.9083 83.6962 86.9083 83.6963 86.9083C83.6963 86.9083 83.6964 86.9083 83.6964 86.9083C83.6965 86.9083 83.6965 86.9083 83.6966 86.9083C83.6966 86.9083 83.6967 86.9083 83.6967 86.9083C83.6968 86.9083 83.6969 86.9083 83.6969 86.9083C83.697 86.9083 83.697 86.9083 83.6971 86.9083C83.6971 86.9083 83.6972 86.9083 83.6972 86.9083C83.6973 86.9083 83.6973 86.9083 83.6974 86.9083C83.6974 86.9083 83.6975 86.9083 83.6975 86.9083C83.6976 86.9083 83.6976 86.9083 83.6977 86.9083C83.6977 86.9083 83.6978 86.9083 83.6978 86.9083C83.6979 86.9083 83.6979 86.9083 83.698 86.9083C83.6981 86.9083 83.6981 86.9083 83.6982 86.9083C83.6982 86.9083 83.6983 86.9083 83.6983 86.9083C83.6984 86.9083 83.6984 86.9083 83.6985 86.9083C83.6985 86.9083 83.6986 86.9083 83.6986 86.9083C83.6987 86.9083 83.6987 86.9083 83.6988 86.9083C83.6988 86.9083 83.6989 86.9083 83.6989 86.9083C83.699 86.9083 83.699 86.9083 83.6991 86.9083C83.6991 86.9083 83.6992 86.9083 83.6992 86.9083C83.6993 86.9083 83.6993 86.9083 83.6994 86.9083C83.6994 86.9083 83.6995 86.9083 83.6995 86.9083C83.6996 86.9083 83.6996 86.9083 83.6997 86.9083C83.6997 86.9083 83.6998 86.9083 83.6998 86.9083C83.6999 86.9083 83.6999 86.9083 83.7 86.9083C83.7 86.9083 83.7001 86.9083 83.7001 86.9083C83.7002 86.9083 83.7002 86.9083 83.7003 86.9083C83.7003 86.9083 83.7004 86.9083 83.7004 86.9083C83.7005 86.9083 83.7005 86.9083 83.7006 86.9083C83.7006 86.9083 83.7007 86.9083 83.7007 86.9083C83.7008 86.9083 83.7008 86.9083 83.7009 86.9083C83.7009 86.9083 83.701 86.9083 83.701 86.9083C83.7011 86.9083 83.7011 86.9083 83.7012 86.9083C83.7012 86.9083 83.7013 86.9083 83.7013 86.9083C83.7013 86.9083 83.7014 86.9083 83.7014 86.9083C83.7015 86.9083 83.7015 86.9083 83.7016 86.9083C83.7016 86.9083 83.7017 86.9083 83.7017 86.9083C83.7018 86.9083 83.7018 86.9083 83.7019 86.9083C83.7019 86.9083 83.702 86.9083 83.702 86.9083C83.7021 86.9083 83.7021 86.9083 83.7022 86.9083C83.7022 86.9083 83.7023 86.9083 83.7023 86.9083C83.7024 86.9083 83.7024 86.9083 83.7024 86.9083C83.7025 86.9083 83.7025 86.9083 83.7026 86.9083C83.7026 86.9083 83.7027 86.9083 83.7027 86.9083C83.7028 86.9083 83.7028 86.9083 83.7029 86.9083C83.7029 86.9083 83.703 86.9083 83.703 86.9083C83.7031 86.9083 83.7031 86.9083 83.7032 86.9083C83.7032 86.9083 83.7032 86.9083 83.7033 86.9083C83.7033 86.9083 83.7034 86.9083 83.7034 86.9083C83.7035 86.9083 83.7035 86.9083 83.7036 86.9083C83.7036 86.9083 83.7037 86.9083 83.7037 86.9083C83.7038 86.9083 83.7038 86.9083 83.7038 86.9083C83.7039 86.9083 83.7039 86.9083 83.704 86.9083C83.704 86.9083 83.7041 86.9083 83.7041 86.9083C83.7042 86.9083 83.7042 86.9083 83.7043 86.9083C83.7043 86.9083 83.7043 86.9083 83.7044 86.9083C83.7044 86.9083 83.7045 86.9083 83.7045 86.9083C83.7046 86.9083 83.7046 86.9083 83.7047 86.9083C83.7047 86.9083 83.7047 86.9083 83.7048 86.9083C83.7048 86.9083 83.7049 86.9083 83.7049 86.9083C83.705 86.9083 83.705 86.9083 83.7051 86.9083C83.7051 86.9083 83.7051 86.9083 83.7052 86.9083C83.7052 86.9083 83.7053 86.9083 83.7053 86.9083C83.7054 86.9083 83.7054 86.9083 83.7055 86.9083C83.7055 86.9083 83.7055 86.9083 83.7056 86.9083C83.7056 86.9083 83.7057 86.9083 83.7057 86.9083C83.7058 86.9083 83.7058 86.9083 83.7058 86.9083C83.7059 86.9083 83.7059 86.9083 83.706 86.9083C83.706 86.9083 83.7061 86.9083 83.7061 86.9083C83.7062 86.9083 83.7062 86.9083 83.7062 86.9083C83.7063 86.9083 83.7063 86.9083 83.7064 86.9083C83.7064 86.9083 83.7065 86.9083 83.7065 86.9083C83.7065 86.9083 83.7066 86.9083 83.7066 86.9083C83.7067 86.9083 83.7067 86.9083 83.7068 86.9083C83.7068 86.9083 83.7068 86.9083 83.7069 86.9083C83.7069 86.9083 83.707 86.9083 83.707 86.9083C83.707 86.9083 83.7071 86.9083 83.7071 86.9083C83.7072 86.9083 83.7072 86.9083 83.7073 86.9083C83.7073 86.9083 83.7073 86.9083 83.7074 86.9083C83.7074 86.9083 83.7075 86.9083 83.7075 86.9083C83.7075 86.9083 83.7076 86.9083 83.7076 86.9083C83.7077 86.9083 83.7077 86.9083 83.7078 86.9083C83.7078 86.9083 83.7078 86.9083 83.7079 86.9083C83.7079 86.9083 83.708 86.9083 83.708 86.9083C83.708 86.9083 83.7081 86.9083 83.7081 86.9083C83.7082 86.9083 83.7082 86.9083 83.7082 86.9083C83.7083 86.9083 83.7083 86.9083 83.7084 86.9083C83.7084 86.9083 83.7084 86.9083 83.7085 86.9083C83.7085 86.9083 83.7086 86.9083 83.7086 86.9083C83.7087 86.9083 83.7087 86.9083 83.7087 86.9083C83.7088 86.9083 83.7088 86.9083 83.7089 86.9083C83.7089 86.9083 83.7089 86.9083 83.709 86.9083C83.709 86.9083 83.7091 86.9083 83.7091 86.9083C83.7091 86.9083 83.7092 86.9083 83.7092 86.9083C83.7092 86.9083 83.7093 86.9083 83.7093 86.9083C83.7094 86.9083 83.7094 86.9083 83.7094 86.9083C83.7095 86.9083 83.7095 86.9083 83.7096 86.9083C83.7096 86.9083 83.7096 86.9083 83.7097 86.9083C83.7097 86.9083 83.7098 86.9083 83.7098 86.9083C83.7098 86.9083 83.7099 86.9083 83.7099 86.9083C83.7099 86.9083 83.71 86.9083 83.71 86.9083C83.7101 86.9083 83.7101 86.9083 83.7101 86.9083C83.7102 86.9083 83.7102 86.9083 83.7103 86.9083C83.7103 86.9083 83.7103 86.9083 83.7104 86.9083C83.7104 86.9083 83.7104 86.9083 83.7105 86.9083C83.7105 86.9083 83.7106 86.9083 83.7106 86.9083C83.7106 86.9083 83.7107 86.9083 83.7107 86.9083C83.7107 86.9083 83.7108 86.9083 83.7108 86.9083C83.7109 86.9083 83.7109 86.9083 83.7109 86.9083C83.711 86.9083 83.711 86.9083 83.711 86.9083C83.7111 86.9083 83.7111 86.9083 83.7112 86.9083C83.7112 86.9083 83.7112 86.9083 83.7113 86.9083C83.7113 86.9083 83.7113 86.9083 83.7114 86.9083C83.7114 86.9083 83.7115 86.9083 83.7115 86.9083C83.7115 86.9083 83.7116 86.9083 83.7116 86.9083C83.7116 86.9083 83.7117 86.9083 83.7117 86.9083C83.7117 86.9083 83.7118 86.9083 83.7118 86.9083C83.7119 86.9083 83.7119 86.9083 83.7119 86.9083C83.712 86.9083 83.712 86.9083 83.712 86.9083C83.7121 86.9083 83.7121 86.9083 83.7121 86.9083C83.7122 86.9083 83.7122 86.9083 83.7122 86.9083C83.7123 86.9083 83.7123 86.9083 83.7124 86.9083C83.7124 86.9083 83.7124 86.9083 83.7125 86.9083C83.7125 86.9083 83.7125 86.9083 83.7126 86.9083C83.7126 86.9083 83.7126 86.9083 83.7127 86.9083C83.7127 86.9083 83.7127 86.9083 83.7128 86.9083C83.7128 86.9083 83.7128 86.9083 83.7129 86.9083C83.7129 86.9083 83.7129 86.9083 83.713 86.9083C83.713 86.9083 83.713 86.9083 83.7131 86.9083C83.7131 86.9083 83.7132 86.9083 83.7132 86.9083C83.7132 86.9083 83.7133 86.9083 83.7133 86.9083C83.7133 86.9083 83.7134 86.9083 83.7134 86.9083C83.7134 86.9083 83.7135 86.9083 83.7135 86.9083C83.7135 86.9083 83.7136 86.9083 83.7136 86.9083C83.7136 86.9083 83.7137 86.9083 83.7137 86.9083C83.7137 86.9083 83.7138 86.9083 83.7138 86.9083C83.7138 86.9083 83.7139 86.9083 83.7139 86.9083C83.7139 86.9083 83.714 86.9083 83.714 86.9083C83.714 86.9083 83.7141 86.9083 83.7141 86.9083C83.7141 86.9083 83.7142 86.9083 83.7142 86.9083C83.7142 86.9083 83.7143 86.9083 83.7143 86.9083C83.7143 86.9083 83.7143 86.9083 83.7144 86.9083C83.7144 86.9083 83.7144 86.9083 83.7145 86.9083C83.7145 86.9083 83.7145 86.9083 83.7146 86.9083C83.7146 86.9083 83.7146 86.9083 83.7147 86.9083C83.7147 86.9083 83.7147 86.9083 83.7148 86.9083C83.7148 86.9083 83.7148 86.9083 83.7149 86.9083C83.7149 86.9083 83.7149 86.9083 83.715 86.9083C83.715 86.9083 83.715 86.9083 83.7151 86.9083C83.7151 86.9083 83.7151 86.9083 83.7151 86.9083C83.7152 86.9083 83.7152 86.9083 83.7152 86.9083C83.7153 86.9083 83.7153 86.9083 83.7153 86.9083C83.7154 86.9083 83.7154 86.9083 83.7154 86.9083C83.7155 86.9083 83.7155 86.9083 83.7155 86.9083C83.7155 86.9083 83.7156 86.9083 83.7156 86.9083C83.7156 86.9083 83.7157 86.9083 83.7157 86.9083C83.7157 86.9083 83.7158 86.9083 83.7158 86.9083C83.7158 86.9083 83.7158 86.9083 83.7159 86.9083C83.7159 86.9083 83.7159 86.9083 83.716 86.9083C83.716 86.9083 83.716 86.9083 83.7161 86.9083C83.7161 86.9083 83.7161 86.9083 83.7161 86.9083C83.7162 86.9083 83.7162 86.9083 83.7162 86.9083C83.7163 86.9083 83.7163 86.9083 83.7163 86.9083C83.7164 86.9083 83.7164 86.9083 83.7164 86.9083C83.7164 86.9083 83.7165 86.9083 83.7165 86.9083C83.7165 86.9083 83.7166 86.9083 83.7166 86.9083C83.7166 86.9083 83.7166 86.9083 83.7167 86.9083C83.7167 86.9083 83.7167 86.9083 83.7168 86.9083C83.7168 86.9083 83.7168 86.9083 83.7168 86.9083C83.7169 86.9083 83.7169 86.9083 83.7169 86.9083C83.717 86.9083 83.717 86.9083 83.717 86.9083C83.717 86.9083 83.7171 86.9083 83.7171 86.9083C83.7171 86.9083 83.7171 86.9083 83.7172 86.9083C83.7172 86.9083 83.7172 86.9083 83.7173 86.9083C83.7173 86.9083 83.7173 86.9083 83.7173 86.9083C83.7174 86.9083 83.7174 86.9083 83.7174 86.9083C83.7175 86.9083 83.7175 86.9083 83.7175 86.9083C83.7175 86.9083 83.7176 86.9083 83.7176 86.9083C83.7176 86.9083 83.7176 86.9083 83.7177 86.9083C83.7177 86.9083 83.7177 86.9083 83.7177 86.9083C83.7178 86.9083 83.7178 86.9083 83.7178 86.9083C83.7179 86.9083 83.7179 86.9083 83.7179 86.9083C83.7179 86.9083 83.718 86.9083 83.718 86.9083C83.718 86.9083 83.718 86.9083 83.7181 86.9083C83.7181 86.9083 83.7181 86.9083 83.7181 86.9083C83.7182 86.9083 83.7182 86.9083 83.7182 86.9083C83.7182 86.9083 83.7183 86.9083 83.7183 86.9083C83.7183 86.9083 83.7184 86.9083 83.7184 86.9083C83.7184 86.9083 83.7184 86.9083 83.7185 86.9083C83.7185 86.9083 83.7185 86.9083 83.7185 86.9083C83.7186 86.9083 83.7186 86.9083 83.7186 86.9083C83.7186 86.9083 83.7187 86.9083 83.7187 86.9083C83.7187 86.9083 83.7187 86.9083 83.7188 86.9083C83.7188 86.9083 83.7188 86.9083 83.7188 86.9083C83.7189 86.9083 83.7189 86.9083 83.7189 86.9083C83.7189 86.9083 83.719 86.9083 83.719 86.9083C83.719 86.9083 83.719 86.9083 83.719 86.9083C83.7191 86.9083 83.7191 86.9083 83.7191 86.9083C83.7191 86.9083 83.7192 86.9083 83.7192 86.9083C83.7192 86.9083 83.7192 86.9083 83.7193 86.9083C83.7193 86.9083 83.7193 86.9083 83.7193 86.9083C83.7194 86.9083 83.7194 86.9083 83.7194 86.9083C83.7194 86.9083 83.7195 86.9083 83.7195 86.9083C83.7195 86.9083 83.7195 86.9083 83.7195 86.9083C83.7196 86.9083 83.7196 86.9083 83.7196 86.9083C83.7196 86.9083 83.7197 86.9083 83.7197 86.9083C83.7197 86.9083 83.7197 86.9083 83.7198 86.9083C83.7198 86.9083 83.7198 86.9083 83.7198 86.9083C83.7198 86.9083 83.7199 86.9083 83.7199 86.9083C83.7199 86.9083 83.7199 86.9083 83.72 86.9083C83.72 86.9083 83.72 86.9083 83.72 86.9083C83.72 86.9083 83.7201 86.9083 83.7201 86.9083C83.7201 86.9083 83.7201 86.9083 83.7202 86.9083C83.7202 86.9083 83.7202 86.9083 83.7202 86.9083C83.7202 86.9083 83.7203 86.9083 83.7203 86.9083C83.7203 86.9083 83.7203 86.9083 83.7203 86.9083C83.7204 86.9083 83.7204 86.9083 83.7204 86.9083C83.7204 86.9083 83.7205 86.9083 83.7205 86.9083C83.7205 86.9083 83.7205 86.9083 83.7205 86.9083C83.7206 86.9083 83.7206 86.9083 83.7206 86.9083C83.7206 86.9083 83.7206 86.9083 83.7207 86.9083C83.7207 86.9083 83.7207 86.9083 83.7207 86.9083C83.7207 86.9083 83.7208 86.9083 83.7208 86.9083C83.7208 86.9083 83.7208 86.9083 83.7208 86.9083C83.7209 86.9083 83.7209 86.9083 83.7209 86.9083C83.7209 86.9083 83.7209 86.9083 83.721 86.9083C83.721 86.9083 83.721 86.9083 83.721 86.9083C83.721 86.9083 83.7211 86.9083 83.7211 86.9083C83.7211 86.9083 83.7211 86.9083 83.7211 86.9083C83.7212 86.9083 83.7212 86.9083 83.7212 86.9083C83.7212 86.9083 83.7212 86.9083 83.7213 86.9083C83.7213 86.9083 83.7213 86.9083 83.7213 86.9083C83.7213 86.9083 83.7214 86.9083 83.7214 86.9083C83.7214 86.9083 83.7214 86.9083 83.7214 86.9083C83.7214 86.9083 83.7215 86.9083 83.7215 86.9083C83.7215 86.9083 83.7215 86.9083 83.7215 86.9083C83.7216 86.9083 83.7216 86.9083 83.7216 86.9083C83.7216 86.9083 83.7216 86.9083 83.7217 86.9083C83.7217 86.9083 83.7217 86.9083 83.7217 86.9083C83.7217 86.9083 83.7217 86.9083 83.7218 86.9083C83.7218 86.9083 83.7218 86.9083 83.7218 86.9083C83.7218 86.9083 83.7218 86.9083 83.7219 86.9083C83.7219 86.9083 83.7219 86.9083 83.7219 86.9083C83.7219 86.9083 83.722 86.9083 83.722 86.9083C83.722 86.9083 83.722 86.9083 83.722 86.9083C83.722 86.9083 83.7221 86.9083 83.7221 86.9083C83.7221 86.9083 83.7221 86.9083 83.7221 86.9083C83.7221 86.9083 83.7222 86.9083 83.7222 86.9083C83.7222 86.9083 83.7222 86.9083 83.7222 86.9083C83.7222 86.9083 83.7223 86.9083 83.7223 86.9083C83.7223 86.9083 83.7223 86.9083 83.7223 86.9083C83.7223 86.9083 83.7224 86.9083 83.7224 86.9083C83.7224 86.9083 83.7224 86.9083 83.7224 86.9083C83.7224 86.9083 83.7224 86.9083 83.7225 86.9083C83.7225 86.9083 83.7225 86.9083 83.7225 86.9083C83.7225 86.9083 83.7225 86.9083 83.7226 86.9083C83.7226 86.9083 83.7226 86.9083 83.7226 86.9083C83.7226 86.9083 83.7226 86.9083 83.7226 86.9083C83.7227 86.9083 83.7227 86.9083 83.7227 86.9083C83.7227 86.9083 83.7227 86.9083 83.7227 86.9083C83.7228 86.9083 83.7228 86.9083 83.7228 86.9083C83.7228 86.9083 83.7228 86.9083 83.7228 86.9083C83.7228 86.9083 83.7229 86.9083 83.7229 86.9083C83.7229 86.9083 83.7229 86.9083 83.7229 86.9083C83.7229 86.9083 83.7229 86.9083 83.723 86.9083C83.723 86.9083 83.723 86.9083 83.723 86.9083C83.723 86.9083 83.723 86.9083 83.723 86.9083C83.7231 86.9083 83.7231 86.9083 83.7231 86.9083C83.7231 86.9083 83.7231 86.9083 83.7231 86.9083C83.7231 86.9083 83.7231 86.9083 83.7232 86.9083C83.7232 86.9083 83.7232 86.9083 83.7232 86.9083C83.7232 86.9083 83.7232 86.9083 83.7232 86.9083C83.7233 86.9083 83.7233 86.9083 83.7233 86.9083C83.7233 86.9083 83.7233 86.9083 83.7233 86.9083C83.7233 86.9083 83.7233 86.9083 83.7234 86.9083C83.7234 86.9083 83.7234 86.9083 83.7234 86.9083C83.7234 86.9083 83.7234 86.9083 83.7234 86.9083C83.7234 86.9083 83.7235 86.9083 83.7235 86.9083C83.7235 86.9083 83.7235 86.9083 83.7235 86.9083C83.7235 86.9083 83.7235 86.9083 83.7235 86.9083C83.7236 86.9083 83.7236 86.9083 83.7236 86.9083C83.7236 86.9083 83.7236 86.9083 83.7236 86.9083C83.7236 86.9083 83.7236 86.9083 83.7236 86.9083C83.7237 86.9083 83.7237 86.9083 83.7237 86.9083C83.7237 86.9083 83.7237 86.9083 83.7237 86.9083C83.7237 86.9083 83.7237 86.9083 83.7237 86.9083C83.7238 86.9083 83.7238 86.9083 83.7238 86.9083C83.7238 86.9083 83.7238 86.9083 83.7238 86.9083C83.7238 86.9083 83.7238 86.9083 83.7238 86.9083C83.7239 86.9083 83.7239 86.9083 83.7239 86.9083C83.7239 86.9083 83.7239 86.9083 83.7239 86.9083C83.7239 86.9083 83.7239 86.9083 83.7239 86.9083C83.7239 86.9083 83.724 86.9083 83.724 86.9083C83.724 86.9083 83.724 86.9083 83.724 86.9083C83.724 86.9083 83.724 86.9083 83.724 86.9083C83.724 86.9083 83.724 86.9083 83.7241 86.9083C83.7241 86.9083 83.7241 86.9083 83.7241 86.9083C83.7241 86.9083 83.7241 86.9083 83.7241 86.9083C83.7241 86.9083 83.7241 86.9083 83.7241 86.9083C83.7241 86.9083 83.7242 86.9083 83.7242 86.9083C83.7242 86.9083 83.7242 86.9083 83.7242 86.9083C83.7242 86.9083 83.7242 86.9083 83.7242 86.9083C83.7242 86.9083 83.7242 86.9083 83.7242 86.9083C83.7242 86.9083 83.7243 86.9083 83.7243 86.9083C83.7243 86.9083 83.7243 86.9083 83.7243 86.9083C83.7243 86.9083 83.7243 86.9083 83.7243 86.9083C83.7243 86.9083 83.7243 86.9083 83.7243 86.9083C83.7243 86.9083 83.7244 86.9083 83.7244 86.9083C83.7244 86.9083 83.7244 86.9083 83.7244 86.9083C83.7244 86.9083 83.7244 86.9083 83.7244 86.9083C83.7244 86.9083 83.7244 86.9083 83.7244 86.9083C83.7244 86.9083 83.7244 86.9083 83.7245 86.9083C83.7245 86.9083 83.7245 86.9083 83.7245 86.9083C83.7245 86.9083 83.7245 86.9083 83.7245 86.9083C83.7245 86.9083 83.7245 86.9083 83.7245 86.9083C83.7245 86.9083 83.7245 86.9083 83.7245 86.9083C83.7245 86.9083 83.7245 86.9083 83.7246 86.9083C83.7246 86.9083 83.7246 86.9083 83.7246 86.9083C83.7246 86.9083 83.7246 86.9083 83.7246 86.9083C83.7246 86.9083 83.7246 86.9083 83.7246 86.9083C83.7246 86.9083 83.7246 86.9083 83.7246 86.9083C83.7246 86.9083 83.7246 86.9083 83.7246 86.9083C83.7246 86.9083 83.7247 86.9083 83.7247 86.9083C83.7247 86.9083 83.7247 86.9083 83.7247 86.9083C83.7247 86.9083 83.7247 86.9083 83.7247 86.9083C83.7247 86.9083 83.7247 86.9083 83.7247 86.9083C83.7247 86.9083 83.7247 86.9083 83.7247 86.9083C83.7247 86.9083 83.7247 86.9083 83.7247 86.9083C83.7247 86.9083 83.7247 86.9083 83.7248 86.9083C83.7248 86.9083 83.7248 86.9083 83.7248 86.9083C83.7248 86.9083 83.7248 86.9083 83.7248 86.9083C83.7248 86.9083 83.7248 86.9083 83.7248 86.9083C83.7248 86.9083 83.7248 86.9083 83.7248 86.9083C83.7248 86.9083 83.7248 86.9083 83.7248 86.9083C83.7248 86.9083 83.7248 86.9083 83.7248 86.9083C83.7248 86.9083 83.7248 86.9083 83.7248 86.9083C83.7248 86.9083 83.7248 86.9083 83.7248 86.9083C83.7249 86.9083 83.7249 86.9083 83.7249 86.9083C83.7249 86.9083 83.7249 86.9083 83.7249 86.9083C83.7249 86.9083 83.7249 86.9083 83.7249 86.9083C83.7249 86.9083 83.7249 86.9083 83.7249 86.9083C83.7249 86.9083 83.7249 86.9083 83.7249 86.9083C83.7249 86.9083 83.7249 86.9083 83.7249 86.9083C83.7249 86.9083 83.7249 86.9083 83.7249 86.9083C83.7249 86.9083 83.7249 86.9083 83.7249 86.9083C83.7249 86.9083 83.7249 86.9083 83.7249 86.9083C83.7249 86.9083 83.7249 86.9083 83.7249 86.9083C83.7249 86.9083 83.7249 86.9083 83.7249 86.9083C83.7249 86.9083 83.7249 86.9083 83.7249 86.9083C83.7249 86.9083 83.7249 86.9083 83.7249 86.9083C83.7249 86.9083 83.7249 86.9083 83.7249 86.9083C83.7249 86.9083 83.7249 86.9083 83.725 86.9083C83.725 86.9083 83.725 86.9083 83.725 86.9083C83.725 86.9083 83.725 86.9083 83.725 86.9083C83.725 86.9083 83.725 86.9083 83.725 86.9083C83.725 86.9083 83.725 86.9083 83.725 86.9083C83.725 86.9083 83.725 86.9083 83.725 86.9083C83.725 86.9083 83.725 86.9083 83.725 86.9083C83.725 86.9083 83.725 86.9083 83.725 86.9083C83.725 86.9083 83.725 86.9083 83.725 85.9083ZM83.6666 84.9083C83.8261 84.9083 84.0369 84.9819 84.185 85.1669C84.309 85.3219 84.3166 85.4642 84.3166 85.5H82.3166C82.3166 85.7692 82.3826 86.1156 82.6233 86.4164C82.8879 86.7472 83.2737 86.9083 83.6666 86.9083V84.9083ZM84.2956 85.704L84.8789 82.9039L82.921 82.496L82.3376 85.296L84.2956 85.704ZM84.9 82.7C84.9 82.8361 84.8631 82.9997 84.7612 83.1525C84.6635 83.2991 84.5437 83.3795 84.4638 83.4194L83.5694 81.6305C83.4118 81.7093 83.2336 81.8383 83.097 82.0432C82.9563 82.2544 82.9 82.4861 82.9 82.7H84.9ZM84.7237 83.232L91.3154 76.6404L89.9012 75.2261L83.3095 81.8178L84.7237 83.232ZM91.3482 76.606L91.9315 75.9644L90.4517 74.6189L89.8684 75.2605L91.3482 76.606ZM91.7916 76.0917C91.8682 76.0342 91.9101 76.0129 91.9297 76.0049C91.9423 75.9997 91.9445 76 91.95 76V74C91.3552 74 90.9127 74.2509 90.5916 74.4917L91.7916 76.0917ZM91.95 76C91.9377 76 91.9295 75.9993 91.9254 75.9988C91.9212 75.9983 91.9197 75.9979 91.9207 75.9981C91.9217 75.9984 91.9243 75.999 91.9282 76.0002C91.932 76.0014 91.9364 76.003 91.9411 76.0049C91.9457 76.0068 91.95 76.0088 91.9537 76.0107C91.9574 76.0126 91.9598 76.0141 91.9609 76.0148C91.9621 76.0155 91.9611 76.015 91.9584 76.0129C91.9557 76.0107 91.9503 76.0062 91.9429 75.9988L93.3571 74.5846C92.9924 74.2199 92.4455 74 91.95 74V76ZM91.9429 75.9988L93.2262 77.2821L94.6404 75.8679L93.3571 74.5846L91.9429 75.9988ZM93.2262 77.2821C93.2349 77.2908 93.2375 77.2966 93.2383 77.2984C93.2393 77.3008 93.2395 77.3027 93.2395 77.3041C93.2395 77.3056 93.2393 77.3074 93.2383 77.3098C93.2375 77.3117 93.2349 77.3175 93.2262 77.3262L94.6404 78.7404C95.4393 77.9416 95.4393 76.6667 94.6404 75.8679L93.2262 77.2821ZM92.647 78.658L90.547 76.6163L89.1529 78.0503L91.2529 80.092L92.647 78.658ZM89.1466 76.6225L83.6049 82.1058L85.0117 83.5275L90.5533 78.0442L89.1466 76.6225ZM83.3237 82.6416L82.857 85.2666L84.8262 85.6167L85.2929 82.9917L83.3237 82.6416ZM84.042 86.4213L86.6087 85.8964L86.2079 83.9369L83.6412 84.4619L84.042 86.4213ZM87.1154 85.6238L92.6571 80.0821L91.2428 78.6679L85.7012 84.2096L87.1154 85.6238ZM94.3487 76.1595L93.0654 74.8762L91.6512 76.2904L92.9345 77.5738L94.3487 76.1595ZM93.0654 74.8762C92.7739 74.5847 92.3882 74.4083 91.95 74.4083V76.4083C91.8992 76.4083 91.8374 76.398 91.7747 76.3712C91.7132 76.3448 91.6725 76.3118 91.6512 76.2904L93.0654 74.8762ZM91.95 74.4083C91.5117 74.4083 91.126 74.5847 90.8345 74.8762L92.2487 76.2904C92.2274 76.3118 92.1867 76.3448 92.1252 76.3712C92.0625 76.398 92.0007 76.4083 91.95 76.4083V74.4083ZM90.8196 74.8914L89.478 76.2914L90.9219 77.6752L92.2636 76.2753L90.8196 74.8914ZM89.5029 77.7003L91.6029 79.7419L92.997 78.308L90.897 76.2663L89.5029 77.7003ZM93.007 79.732L94.3487 78.3904L92.9345 76.9761L91.5928 78.3178L93.007 79.732ZM94.3487 78.3904C94.9726 77.7665 94.9726 76.7834 94.3487 76.1595L92.9345 77.5737C92.8697 77.5089 92.8166 77.4027 92.8166 77.2749C92.8166 77.1472 92.8697 77.041 92.9345 76.9761L94.3487 78.3904Z" fill="white" mask="url(#path-3-inside-1_36_345)"/>
</svg>
