<svg width="27" height="27" viewBox="0 0 27 27" fill="none" xmlns="http://www.w3.org/2000/svg">
<path fill-rule="evenodd" clip-rule="evenodd" d="M18.7728 26.997C17.2122 26.9894 15.9494 25.7755 15.9411 24.2753L15.9412 20.5C15.9397 20.3601 15.8798 20.2263 15.7753 20.129C15.6706 20.0317 15.5298 19.978 15.3841 19.981H11.6722C11.3761 19.9861 11.1373 20.2152 11.1322 20.5V24.2626C11.1322 24.3823 11.1136 24.5009 11.0771 24.6154C10.8938 25.9899 9.66689 27.0142 8.22479 26.9965H5.75072C2.59957 27.0147 0.027289 24.5789 0 21.5501V10.8592C0.0106783 9.5521 0.656781 8.32559 1.74623 7.54407L10.1419 1.11603C12.0968 -0.372008 14.86 -0.372008 16.8149 1.11603L25.2796 7.55876C26.3501 8.33522 26.9855 9.545 27 10.8344V21.5537C26.9728 24.583 24.3991 27.0198 21.2472 27L18.7728 26.997ZM15.3849 17.5325C17.1018 17.5219 18.5036 18.8503 18.5167 20.5005L18.5168 24.2753C18.5177 24.3483 18.549 24.4172 18.6037 24.4674C18.6584 24.5176 18.7318 24.5444 18.8073 24.5419H21.2481C22.9852 24.5591 24.4088 23.2211 24.4297 21.5516V10.8491C24.417 10.3113 24.1473 9.80905 23.6985 9.48722L15.2155 3.03435C14.1984 2.26195 12.7625 2.26195 11.7454 3.03435L3.32843 9.4781C2.85937 9.79993 2.57857 10.3179 2.57251 10.8719V21.5496C2.59334 23.2181 4.01566 24.5561 5.75187 24.5399H8.22607C8.39139 24.5434 8.52942 24.4193 8.53588 24.2601C8.53653 24.1679 8.54669 24.0756 8.5662 23.9854L8.55974 20.498C8.57463 18.8579 9.96018 17.5346 11.6667 17.531L15.3849 17.5325Z" fill="#A3968E"/>
</svg>
