<svg width="23" height="20" viewBox="0 0 23 20" fill="none" xmlns="http://www.w3.org/2000/svg">
<path d="M21.8333 8.8125V14.0208C21.8333 17.6667 19.75 19.2292 16.625 19.2292H6.20833C3.08333 19.2292 1 17.6667 1 14.0208V6.72917C1 3.08333 3.08333 1.52083 6.20833 1.52083H13.5M6.20833 7.25L9.46875 9.85417C10.5417 10.7083 12.3021 10.7083 13.375 9.85417L14.6042 8.875M21.8333 3.60417C21.8333 5.04241 20.6674 6.20833 19.2292 6.20833C17.7909 6.20833 16.625 5.04241 16.625 3.60417C16.625 2.16593 17.7909 1 19.2292 1C20.6674 1 21.8333 2.16593 21.8333 3.60417Z" stroke="white" stroke-width="1.5" stroke-miterlimit="10" stroke-linecap="round" stroke-linejoin="round"/>
</svg>
