<svg width="49" height="49" viewBox="0 0 49 49" fill="none" xmlns="http://www.w3.org/2000/svg">
<path d="M6.125 6.125L18.375 10.2083V42.875L6.125 38.7917V6.125Z" fill="black" fill-opacity="0.15"/>
<path d="M42.875 10.2083L30.625 6.125V38.7917L42.875 42.875V10.2083Z" fill="black" fill-opacity="0.15"/>
<path d="M30.625 6.125V38.7917M30.625 6.125L18.375 10.2083M30.625 6.125L42.875 10.2083V42.875L30.625 38.7917M30.625 38.7917L18.375 42.875M18.375 10.2083V42.875M18.375 10.2083L6.125 6.125V38.7917L18.375 42.875" stroke="white" stroke-width="2" stroke-linecap="round" stroke-linejoin="round"/>
<path d="M22.5002 34.4168C22.1988 34.4168 21.9404 34.3307 21.7252 34.1585C21.5099 33.9863 21.3484 33.7602 21.2408 33.4804C20.8318 32.2748 20.3151 31.1446 19.6908 30.0897C19.088 29.0349 18.2377 27.797 17.1397 26.3762C16.0418 24.9554 15.1484 23.5991 14.4595 22.3075C13.7922 21.0158 13.4585 19.455 13.4585 17.6252C13.4585 15.1064 14.3304 12.9752 16.0741 11.2314C17.8394 9.46613 19.9814 8.5835 22.5002 8.5835C25.0189 8.5835 27.1502 9.46613 28.8939 11.2314C30.6592 12.9752 31.5418 15.1064 31.5418 17.6252C31.5418 19.5842 31.1651 21.2203 30.4116 22.5335C29.6797 23.8252 28.8293 25.1061 27.8606 26.3762C26.6981 27.9262 25.8154 29.2179 25.2127 30.2512C24.6314 31.263 24.147 32.3394 23.7595 33.4804C23.6519 33.7818 23.4797 34.0186 23.2429 34.1908C23.0276 34.3415 22.78 34.4168 22.5002 34.4168ZM22.5002 20.8543C23.4043 20.8543 24.1686 20.5422 24.7929 19.9179C25.4172 19.2936 25.7293 18.5293 25.7293 17.6252C25.7293 16.721 25.4172 15.9568 24.7929 15.3325C24.1686 14.7081 23.4043 14.396 22.5002 14.396C21.596 14.396 20.8318 14.7081 20.2075 15.3325C19.5831 15.9568 19.271 16.721 19.271 17.6252C19.271 18.5293 19.5831 19.2936 20.2075 19.9179C20.8318 20.5422 21.596 20.8543 22.5002 20.8543Z" fill="white"/>
</svg>
