<svg width="102" height="106" viewBox="0 0 102 106" fill="none" xmlns="http://www.w3.org/2000/svg">
<path fill-rule="evenodd" clip-rule="evenodd" d="M67.4429 25.3818C67.6513 25.4594 67.873 25.4944 68.0951 25.4849C68.3172 25.4753 68.5352 25.4214 68.7361 25.3263C68.6045 25.6241 68.37 25.8644 68.0756 26.0034C68.0691 26.0052 68.0629 26.0083 68.0576 26.0125C68.0522 26.0167 68.0477 26.0219 68.0444 26.0279C68.041 26.0338 68.0389 26.0403 68.038 26.0471C68.0372 26.0538 68.0377 26.0607 68.0395 26.0673C68.0414 26.0738 68.0445 26.0799 68.0487 26.0853C68.0529 26.0907 68.0581 26.0952 68.064 26.0985C68.0699 26.1019 68.0764 26.104 68.0832 26.1048C68.09 26.1057 68.0968 26.1051 68.1034 26.1033C68.9026 25.9424 69.1024 25.071 69.1468 24.9933C69.1536 24.9653 69.1508 24.9358 69.1387 24.9095C69.1266 24.8833 69.106 24.862 69.0802 24.849C68.8193 24.6992 69.0802 25.2542 67.4762 25.2708C67.4689 25.2686 67.4613 25.2679 67.4537 25.2687C67.4461 25.2694 67.4388 25.2717 67.4321 25.2753C67.4254 25.2789 67.4195 25.2838 67.4147 25.2897C67.4099 25.2956 67.4063 25.3024 67.4041 25.3097C67.4019 25.317 67.4012 25.3246 67.4019 25.3322C67.4027 25.3398 67.405 25.3471 67.4086 25.3538C67.4122 25.3605 67.4171 25.3664 67.423 25.3712C67.4288 25.376 67.4356 25.3796 67.4429 25.3818ZM33.8321 27.341C33.8425 27.3511 33.8564 27.3568 33.871 27.3568C33.8855 27.3568 33.8995 27.3511 33.9098 27.341C33.982 27.2189 33.6823 27.402 33.71 26.3364C33.9303 26.5041 34.1944 26.6043 34.4704 26.625C34.478 26.6275 34.4862 26.6283 34.4942 26.6274C34.5022 26.6265 34.5099 26.6238 34.5167 26.6196C34.5236 26.6153 34.5295 26.6097 34.5339 26.6029C34.5384 26.5962 34.5413 26.5886 34.5425 26.5806C34.5442 26.5653 34.5399 26.5499 34.5307 26.5375C34.5214 26.5251 34.5078 26.5167 34.4926 26.514C34.3937 26.4735 34.2974 26.4272 34.204 26.3753C33.9962 26.271 33.8285 26.1014 33.7267 25.8924C33.7158 25.8638 33.6958 25.8395 33.6697 25.8234C33.6435 25.8074 33.6129 25.8004 33.5824 25.8036C33.3271 25.8036 33.3215 27.119 33.8321 27.341ZM34.3316 23.0009C34.568 22.9329 34.7774 22.7933 34.931 22.6013C34.9455 22.5951 34.9571 22.5836 34.9633 22.5691C34.9695 22.5546 34.9699 22.5383 34.9643 22.5236C34.9543 22.515 34.9415 22.5103 34.9283 22.5103C34.915 22.5103 34.9022 22.515 34.8922 22.5236C34.7714 22.5151 34.6507 22.5414 34.5445 22.5995C34.4382 22.6575 34.3509 22.7448 34.2928 22.851C34.2763 22.8809 34.2633 22.9126 34.2539 22.9454C34.1984 22.9787 34.2817 23.0564 34.3316 23.0009Z" fill="#978A82"/>
<path fill-rule="evenodd" clip-rule="evenodd" d="M97.0297 50.3179C96.9132 43.4636 96.1417 0.201353 96.1417 0.201353C96.1415 0.181203 96.137 0.161332 96.1283 0.143122C96.1197 0.124911 96.1072 0.108798 96.0917 0.0959026C96.0772 0.0819885 96.0595 0.0717179 96.0402 0.0659303C96.021 0.0601427 96.0006 0.0590025 95.9808 0.0626026L50.615 6.0566C50.5595 6.0566 50.5873 6.10655 50.5873 6.16205V36.2431C49.7381 36.2431 35.5579 36.737 35.5579 36.737C35.5432 36.737 35.5291 36.7428 35.5186 36.7533C35.5082 36.7637 35.5024 36.7778 35.5024 36.7925C35.5024 36.8003 35.504 36.808 35.5071 36.8151C35.5102 36.8222 35.5148 36.8286 35.5206 36.8338C35.5263 36.8391 35.5331 36.843 35.5405 36.8455C35.5479 36.8479 35.5557 36.8488 35.5634 36.848L43.3334 36.687C43.3334 36.909 43.7164 45.728 43.7441 46.122C43.7885 46.8546 43.9661 49.1857 43.9772 49.2856C43.9034 49.2603 43.8311 49.2306 43.7608 49.1968C41.9856 48.4375 40.1587 47.805 38.294 47.3042C37.739 47.1655 37.234 47.0489 36.74 46.9545C36.6753 43.9696 36.3353 40.997 35.7244 38.0745C35.2471 35.9433 34.5367 33.8899 33.5044 32.5246C32.9298 31.7509 32.2729 31.0419 31.5452 30.41L31.5841 28.9448C31.9587 29.0499 32.3442 29.1114 32.7329 29.128C33.4028 29.1836 34.0722 29.0157 34.6366 28.6507C35.2804 28.1956 35.7466 27.3409 35.7133 25.8035C36.0352 25.8035 36.3793 25.8923 36.3793 25.6703C36.3793 25.2874 35.2193 22.9508 35.1916 21.9019C35.2696 21.8798 35.3495 21.8649 35.4302 21.8575C35.9075 21.8575 38.6215 21.2303 38.7935 20.975C38.8919 20.8483 38.943 20.6913 38.9378 20.531L35.1361 21.086C34.0261 18.1667 33.521 17.5673 32.3611 17.3453C30.5684 17.0068 27.3661 17.5507 26.3837 19.0603C25.8287 19.865 25.8287 21.4745 25.8287 22.529C25.8166 22.8392 25.8371 23.1499 25.8898 23.4559V23.578C25.9289 23.7681 25.9865 23.954 26.0618 24.133C26.1577 24.3701 26.2807 24.5955 26.4281 24.8045C26.6271 25.0879 26.8708 25.3372 27.1496 25.5427C27.0886 25.687 26.6723 26.6527 26.5946 26.8192C26.5169 26.9857 26.1229 27.9847 26.0729 28.1123C23.975 28.19 21.8161 29.3833 20.09 32.63C18.836 35.1186 18.0229 37.8057 17.6869 40.572C17.4006 42.6299 17.2541 44.7048 17.2484 46.7825C17.1939 48.8782 17.3015 50.9749 17.5703 53.054C17.5703 53.054 17.648 55.8901 17.7757 57.8215C17.5426 57.8215 17.3483 58.1878 17.2817 58.4708C17.2185 58.7322 17.1924 59.0013 17.204 59.27C17.03 58.9881 16.8149 58.7336 16.5658 58.5152C16.1884 58.2044 15.6112 57.9269 15.1838 58.3321C14.6288 58.8871 14.2625 60.3745 14.1071 61.1404C13.48 59.8028 12.3478 59.542 11.6318 61.5344C10.6495 59.5253 9.706 59.6863 9.4618 60.8407C9.151 60.1136 8.57935 59.542 8.1742 60.1691C8.03213 60.4251 7.93277 60.7025 7.88005 60.9905C7.3528 59.9527 6.51475 60.1247 6.3094 60.652C6.2238 60.9512 6.2238 61.2685 6.3094 61.5677C6.3094 61.5824 6.31524 61.5965 6.32565 61.6069C6.33606 61.6174 6.35018 61.6232 6.3649 61.6232C6.37962 61.6232 6.39373 61.6174 6.40414 61.6069C6.41455 61.5965 6.4204 61.5824 6.4204 61.5677C6.3444 61.2954 6.3444 61.0075 6.4204 60.7352C6.46003 60.6527 6.51945 60.5813 6.59336 60.5273C6.66728 60.4733 6.75339 60.4385 6.84404 60.4258C6.93469 60.4132 7.02706 60.4232 7.11292 60.4549C7.19878 60.4866 7.27546 60.539 7.33615 60.6076C7.75795 60.9794 7.7413 61.4789 7.89115 61.4678C7.91419 61.4647 7.93569 61.4545 7.95262 61.4386C7.96955 61.4227 7.98105 61.4018 7.9855 61.379C8.03545 61.3235 8.2408 59.3255 9.00115 60.5965C9.15673 60.8742 9.2761 61.1708 9.35635 61.4789C9.36425 61.5098 9.38345 61.5367 9.41016 61.5541C9.43687 61.5716 9.46915 61.5784 9.50065 61.5733C9.53165 61.5683 9.56006 61.553 9.58123 61.5298C9.6024 61.5066 9.61508 61.4769 9.61719 61.4456C9.61719 61.3901 9.7393 59.3755 10.8326 60.8296C11.0932 61.1937 11.3111 61.5867 11.482 62.0006C11.4929 62.0293 11.5129 62.0535 11.539 62.0696C11.5651 62.0857 11.5958 62.0926 11.6263 62.0894C11.6557 62.0886 11.6839 62.0776 11.7061 62.0584C11.7284 62.0392 11.7433 62.0129 11.7484 61.984C11.8483 61.8119 12.4088 59.553 13.4855 60.7685C13.7161 61.0488 13.8862 61.3738 13.985 61.7231C13.9916 61.7544 14.0093 61.7823 14.0348 61.8017C14.0603 61.821 14.0919 61.8306 14.1238 61.8286C14.1558 61.8267 14.1862 61.8142 14.2104 61.7931C14.2345 61.772 14.2509 61.7435 14.257 61.712C14.257 61.6565 14.7787 58.3099 15.6389 58.382C15.9176 58.4133 16.1805 58.5274 16.3937 58.7095C16.7285 58.9931 17.0039 59.3402 17.204 59.7307C17.2107 59.752 17.2255 59.7698 17.2453 59.7802C17.2651 59.7906 17.2882 59.7928 17.3095 59.7862C17.3308 59.7795 17.3487 59.7647 17.3591 59.7449C17.3695 59.7251 17.3716 59.702 17.365 59.6807C17.3043 59.302 17.3043 58.9161 17.365 58.5374C17.379 58.4222 17.4199 58.3119 17.4845 58.2154C17.5492 58.119 17.6356 58.0392 17.7368 57.9824C18.4805 68.8105 20.917 88.2521 21.8716 95.6669L0.870395 101.25C0.855676 101.255 0.843313 101.265 0.836028 101.278C0.828742 101.292 0.827129 101.308 0.831545 101.322C0.835961 101.337 0.846044 101.349 0.859574 101.357C0.873105 101.364 0.888976 101.366 0.903695 101.361L21.9382 95.9C22.1602 97.6039 22.2934 98.6028 22.2934 98.6028H22.5875C22.2545 101.789 22.5431 101.528 23.5255 101.417C24.611 101.267 25.6875 101.057 26.75 100.79C27.4721 100.633 28.1781 100.41 28.859 100.124C28.986 100.064 29.1053 99.9897 29.2142 99.9016C29.2758 99.8537 29.3236 99.7906 29.353 99.7184C29.686 98.8193 26.3449 99.0413 25.3847 99.1134V98.3864H25.7122L26.1284 94.7845L29.3752 93.9242C30.5185 99.0469 31.3898 102.893 31.3898 102.893H31.7783C31.7395 103.265 31.6784 104.003 31.6784 104.586C31.6784 105.657 31.7894 105.59 32.7385 105.485C33.8275 105.349 34.9078 105.15 35.9741 104.891C40.231 103.875 39.121 102.871 34.6033 103.226V102.91H35.5412C35.5412 99.8738 35.5856 96.2108 35.6522 92.2592L50.8703 88.13C50.8845 88.1274 50.8974 88.1198 50.9065 88.1086C50.9157 88.0974 50.9205 88.0834 50.9203 88.069C50.9203 88.069 50.8204 50.7341 50.8148 50.4289L52.219 50.2513C52.219 50.6564 52.0469 88.069 52.0469 88.069C52.0469 88.0851 52.0534 88.1007 52.0648 88.1121C52.0763 88.1236 52.0918 88.13 52.108 88.13C52.1232 88.1286 52.1373 88.1216 52.1476 88.1103C52.1579 88.099 52.1636 88.0842 52.1635 88.069C52.1635 88.069 52.3355 50.612 52.3355 50.2346L53.551 50.0792C53.551 50.7008 53.4844 88.513 53.4844 88.513C53.4841 88.5316 53.4886 88.55 53.4973 88.5665C53.506 88.583 53.5188 88.597 53.5343 88.6073C53.5508 88.6152 53.5688 88.6193 53.5871 88.6193C53.6053 88.6193 53.6233 88.6152 53.6398 88.6073L64.3124 85.5271C64.6232 87.5195 64.9729 89.4787 65.378 91.3657L65.4613 91.4711C65.6226 91.5301 65.7876 91.5783 65.9552 91.6154L65.9108 92.3702C65.9113 92.3995 65.9232 92.4274 65.9441 92.4479V92.8253L65.5445 93.014C65.4113 93.0806 65.2559 93.1639 65.095 93.2582L64.8619 93.408C64.7509 93.4857 64.6454 93.569 64.5289 93.6578C64.5203 93.6679 64.5156 93.6806 64.5156 93.6939C64.5156 93.7071 64.5203 93.7199 64.5289 93.7299C64.1792 93.8853 62.1923 94.8399 62.4809 95.8445C62.9083 97.3541 69.474 94.5292 69.474 94.5292V93.9742C69.4872 93.9717 69.4994 93.965 69.5084 93.9549C69.5174 93.9449 69.5229 93.9321 69.5239 93.9186C69.5457 93.8535 69.5624 93.7867 69.5739 93.7189C69.5793 93.6487 69.5793 93.5781 69.5739 93.508V92.853C69.5665 92.8005 69.5553 92.7486 69.5405 92.6976C69.5259 92.6294 69.5055 92.5626 69.4795 92.4978C69.4702 92.4676 69.4591 92.4379 69.4462 92.4091C69.4535 92.3856 69.4535 92.3604 69.4462 92.3369L69.3907 91.3434C69.4961 91.2935 69.6072 91.2436 69.7126 91.1825C69.7314 91.1738 69.7477 91.1607 69.7603 91.1442C69.7729 91.1278 69.7813 91.1085 69.7847 91.0882C69.7847 91.0882 70.8948 83.9176 70.9281 83.6845C71.0335 83.6845 72.038 83.4347 72.3988 83.3403C72.5986 83.2904 75.246 82.5412 75.4902 82.469L76.8998 82.0028C78.0098 84.3949 79.2697 86.8924 80.7516 89.4842L80.8737 89.5508C80.8737 89.5508 81.1955 89.5508 81.6673 89.5175C81.9947 90.4333 81.9947 90.4499 82.0669 90.4721C82.1002 90.6053 82.128 90.6941 82.1668 90.8273C82.0392 90.9605 81.0568 92.0816 81.1789 92.2093C80.9181 92.4868 79.4473 94.124 80.0689 94.9454C81.0402 96.1775 86.0352 91.0604 86.0352 91.0604L85.8187 90.5387C85.9685 90.4554 85.6022 89.5397 85.1638 89.0901C85.1664 89.0717 85.1664 89.0531 85.1638 89.0347L84.8918 88.574C85.1305 88.3853 85.5023 87.9191 85.4468 87.7359C85.4468 87.7359 84.2703 84.1562 83.4156 80.1491L85.0806 79.6829C85.0806 79.6829 85.1583 79.6496 85.1583 79.6219V11.6954C85.1583 11.6344 85.1583 11.5733 85.0806 11.5678L57.5692 7.7216L93.0892 3.8366C93.0892 5.1575 94.8097 99.2411 94.8097 99.2411C94.811 99.2554 94.8172 99.2688 94.8273 99.279C94.8375 99.2891 94.8509 99.2953 94.8652 99.2966C94.873 99.2966 94.8807 99.295 94.8878 99.2919C94.8949 99.2888 94.9013 99.2842 94.9065 99.2784C94.9118 99.2727 94.9157 99.2659 94.9182 99.2585C94.9206 99.2511 94.9215 99.2433 94.9207 99.2355L93.35 3.67565C93.3502 3.65598 93.3464 3.63647 93.3387 3.61834C93.3311 3.6002 93.3198 3.58382 93.3056 3.5702C93.2911 3.55629 93.2734 3.54602 93.2541 3.54023C93.2348 3.53444 93.2145 3.5333 93.1946 3.5369L53.8285 7.90475C53.773 7.90475 53.6398 7.9547 53.6398 8.0102V36.1709L52.4854 36.1987V7.33865L94.1104 2.12165C94.1437 3.8255 96.1639 99.8405 96.1639 99.8405C96.1653 99.8557 96.1723 99.8699 96.1836 99.8801C96.1949 99.8904 96.2097 99.8961 96.2249 99.896C96.2327 99.896 96.2404 99.8944 96.2476 99.8913C96.2547 99.8882 96.2611 99.8836 96.2663 99.8778C96.2715 99.8721 96.2755 99.8653 96.2779 99.8579C96.2804 99.8505 96.2812 99.8427 96.2804 99.8349L94.3935 1.9718C94.3933 1.95165 94.3887 1.93178 94.3801 1.91357C94.3715 1.89536 94.359 1.87925 94.3435 1.86635C94.3122 1.84136 94.2724 1.82943 94.2325 1.83305L52.4521 7.13885C52.3966 7.13885 52.3189 7.19435 52.3189 7.24985V36.2042L50.7593 36.2431V6.27305L95.8642 0.362303C95.8919 1.89965 97.729 100.434 97.729 100.434C97.7329 100.447 97.7406 100.458 97.7511 100.465C97.7616 100.473 97.7743 100.477 97.7873 100.477C97.8003 100.477 97.813 100.473 97.8234 100.465C97.8339 100.458 97.8417 100.447 97.8456 100.434C97.8456 100.434 97.113 55.385 97.0297 50.3179ZM36.3626 43.5413C36.5624 45.4727 36.5735 46.4273 36.6068 46.949C35.8999 46.7932 35.1713 46.7613 34.4534 46.8546C34.4461 46.856 34.4391 46.8588 34.4328 46.8629C34.4266 46.867 34.4212 46.8723 34.4171 46.8785C34.4129 46.8847 34.4101 46.8917 34.4087 46.8991C34.4073 46.9064 34.4074 46.914 34.409 46.9213C34.4104 46.9286 34.4132 46.9356 34.4173 46.9419C34.4214 46.9481 34.4267 46.9535 34.4329 46.9576C34.4391 46.9618 34.4461 46.9646 34.4534 46.966C34.4608 46.9674 34.4683 46.9673 34.4756 46.9657C35.3137 46.8047 36.74 47.0711 38.233 47.4763C40.0803 47.9953 41.8886 48.6445 43.6442 49.4188C44.2014 49.647 44.7917 49.7838 45.3925 49.8239C46.2762 49.9042 47.1643 49.9265 48.0509 49.8905H48.1175C48.619 49.5723 49.1507 49.3046 49.7048 49.0913C49.738 49.0872 49.7716 49.0872 49.8047 49.0913C49.4303 49.6253 49.0006 50.1183 48.5227 50.562C48.5016 50.5821 48.4872 50.6082 48.4818 50.6368C48.4763 50.6654 48.48 50.695 48.4923 50.7213C48.5045 50.7477 48.5248 50.7696 48.5502 50.7838C48.5756 50.7981 48.6048 50.804 48.6337 50.8007L49.6771 50.6842C49.4708 51.0835 49.1945 51.4426 48.8612 51.7442C47.8289 52.61 46.841 51.4168 44.0105 51.6998C42.9005 51.8108 39.8591 52.9763 36.9287 53.3648C35.1916 53.609 33.4933 53.5868 32.2723 52.882C31.1623 52.2604 30.3464 51.0061 29.7137 49.6186C28.8971 47.7008 28.3211 45.6894 27.9988 43.6301C28.6148 43.6301 35.9852 43.558 36.3682 43.5469L36.3626 43.5413ZM49.3496 50.39L48.9889 50.4289L49.3108 50.0903C49.3047 50.1918 49.3179 50.2935 49.3496 50.39ZM36.7844 53.6257C39.6982 53.2649 42.956 52.0384 44.0327 51.9607C45.7921 51.7831 46.7522 52.1938 47.9177 52.3325C49.1998 52.4879 49.9879 50.6065 50.0378 50.551L50.7038 50.4677C50.7038 50.7952 50.6539 60.4577 50.6539 60.8073C49.7492 58.5374 48.2951 58.554 48.0953 60.2523C47.8955 59.6973 47.4626 58.6651 46.8965 58.5263C46.3304 58.3876 46.0585 58.8426 45.892 59.3421C45.6367 58.937 45.2038 58.4042 44.7265 58.3543C44.2492 58.3043 43.6997 59.1923 43.4611 59.6807C43.4195 59.4537 43.3427 59.2347 43.2335 59.0314C43.1892 58.9304 43.1231 58.8405 43.0401 58.7681C42.957 58.6956 42.859 58.6424 42.7529 58.6122C42.6469 58.5819 42.5355 58.5755 42.4268 58.5933C42.318 58.611 42.2144 58.6526 42.1235 58.715C41.9276 58.9097 41.7762 59.1445 41.6795 59.4032C41.5457 59.7371 41.4362 60.0802 41.3521 60.4299C41.3021 59.9804 41.1856 59.5475 40.7249 59.5364C40.5285 59.5508 40.3383 59.6117 40.1699 59.714C40.0496 59.5326 39.8973 59.3746 39.7204 59.2478C39.2264 58.9093 38.4661 58.8316 38.3606 59.5642C38.0332 58.9759 36.8788 57.9546 36.568 58.5096C36.7067 52.9263 36.8011 53.9753 36.7844 53.6423V53.6257ZM36.3515 43.4137C35.9741 43.4137 27.2773 43.3304 26.8777 43.3304C26.8419 42.826 26.8419 42.3197 26.8777 41.8153C27.0608 41.8153 28.687 41.8708 29.131 41.8819C29.575 41.893 33.571 41.8819 33.8873 41.8819L36.185 41.8042C36.235 42.3647 36.296 42.9031 36.3515 43.4137ZM26.6834 24.6547C26.5468 24.4624 26.4279 24.258 26.3282 24.0442C26.2578 23.8888 26.1966 23.7295 26.1451 23.5669C28.309 23.5104 30.4587 23.1993 32.5498 22.64C32.1113 24.4493 31.9615 23.6335 31.6784 25.4983H31.2122C31.1678 25.3429 31.4842 23.7334 30.2798 23.5669C30.1436 23.5466 30.0046 23.554 29.8713 23.5885C29.7379 23.6231 29.6129 23.6842 29.5036 23.768C29.3944 23.8519 29.3031 23.957 29.2353 24.0769C29.1674 24.1968 29.1244 24.3291 29.1088 24.466C29.0621 24.7592 29.1297 25.0591 29.2975 25.304C29.4459 25.4991 29.6547 25.6396 29.8913 25.7036C29.7356 25.9521 29.5341 26.1686 29.2975 26.3419C28.8257 26.7137 27.7934 26.3086 27.2551 26.0311C27.3938 25.7369 27.4826 25.5371 27.4826 25.5371C27.4974 25.5051 27.4999 25.4687 27.4896 25.435C27.4794 25.4013 27.4572 25.3724 27.4271 25.354C27.1395 25.1671 26.8876 24.9303 26.6834 24.6547ZM27.2051 26.1754C27.5847 26.3984 27.9939 26.5666 28.4206 26.6749C28.7001 26.7566 28.9985 26.7469 29.2721 26.647C29.5457 26.5472 29.7802 26.3625 29.9413 26.1199C30.1133 25.9256 30.3242 25.5649 30.0745 25.5316C29.9627 25.518 29.855 25.4812 29.7583 25.4234C29.6616 25.3656 29.5781 25.2882 29.5133 25.1961C29.4484 25.1041 29.4036 24.9994 29.3817 24.8889C29.3598 24.7784 29.3614 24.6646 29.3863 24.5548C29.3978 24.4551 29.4293 24.3589 29.479 24.2718C29.5286 24.1847 29.5953 24.1085 29.6752 24.0478C29.755 23.9872 29.8463 23.9433 29.9435 23.9188C30.0408 23.8943 30.142 23.8898 30.241 23.9054C30.4446 23.9454 30.6268 24.0581 30.7534 24.2226C30.88 24.387 30.9425 24.5918 30.9292 24.799C30.9847 25.3096 30.8015 25.8535 31.079 25.8424L31.8005 25.7924C31.8322 25.7913 31.8624 25.779 31.8858 25.7576C31.9092 25.7363 31.9243 25.7073 31.9282 25.6759C31.9282 25.6759 31.9837 25.1764 32.078 24.7324C32.2667 23.8555 32.411 24.2939 32.7163 22.6289C33.793 22.3514 34.6199 22.0739 35.075 21.9629C35.075 22.9564 35.8576 24.8711 36.074 25.5649C35.7688 25.5926 35.4136 25.4761 35.4247 25.7092C35.5079 27.2021 35.0806 28.0235 34.4756 28.4842C33.9605 28.8133 33.3543 28.9707 32.744 28.9337C32.3301 28.9266 31.9184 28.8707 31.5175 28.7672C31.2511 28.684 31.462 29.3777 31.4231 30.3601C29.9635 29.1391 28.1375 28.1845 26.245 28.1678C26.6279 27.3908 27.1774 26.2364 27.2051 26.1754ZM28.748 99.8682C28.0839 100.143 27.3967 100.359 26.6945 100.512C25.5845 100.79 24.2969 101.023 23.4922 101.128C23.2531 101.162 23.0122 101.183 22.7707 101.189C22.5653 100.667 22.6985 98.7472 22.6985 98.564L25.2904 98.403L25.2404 99.1967C25.235 99.2167 25.235 99.2378 25.2404 99.2578C25.2501 99.2619 25.2605 99.264 25.271 99.264C25.2815 99.264 25.2918 99.2619 25.3015 99.2578C26.8444 99.2911 30.1577 99.23 28.748 99.8682ZM26.195 94.4626L27.1274 86.3263C24.2137 73.0063 24.2137 69.543 24.2137 69.543C24.8408 73.2837 27.4438 85.1275 29.3419 93.6301L26.195 94.4626ZM32.0003 105.268C32.0003 105.268 31.9781 105.28 31.9837 105.268H32.0003ZM37.9943 103.959C36.74 104.558 32.7274 105.335 31.9948 105.279C31.8743 104.486 31.8482 103.681 31.9171 102.882H34.52C34.52 103.154 34.4645 103.281 34.52 103.337C34.5397 103.345 34.5615 103.345 34.5811 103.337C36.0518 103.381 39.3929 103.287 37.9777 103.959H37.9943ZM35.4136 54.386C34.4035 54.497 33.3878 54.5803 32.3722 54.6413C31.3565 54.7024 30.463 54.7301 29.5084 54.7357C28.5538 54.7412 27.5659 54.7356 26.5946 54.6635C21.3776 54.3749 18.4306 53.2982 18.0143 53.1484C17.7535 53.0596 17.7257 53.0429 17.6702 53.0207C17.4749 50.9399 17.3916 48.8501 17.4205 46.7603C17.4563 44.6928 17.6232 42.6296 17.92 40.5832C18.2688 37.8521 19.0796 35.2002 20.3176 32.741C22.1324 29.411 24.3968 28.2622 26.6057 28.4231C29.1865 28.6118 31.684 30.5377 33.2657 32.68C34.2814 34.0342 34.9862 36.0544 35.4857 38.1467C35.7688 39.3344 35.9741 40.5498 36.1351 41.682L32.905 41.6099C32.4388 41.6099 27.0386 41.6821 26.8555 41.6932C26.8555 41.0549 26.9276 40.3556 26.9776 39.7285C27.0664 38.6185 27.1607 37.7083 27.1607 37.7083C27.1607 37.7083 27.1607 37.6472 27.1108 37.6472C27.1031 37.6456 27.0951 37.6457 27.0874 37.6474C27.0798 37.6491 27.0725 37.6524 27.0662 37.6571C27.0599 37.6619 27.0547 37.6679 27.0509 37.6748C27.0471 37.6817 27.0448 37.6893 27.0442 37.6971C27.0442 37.6971 26.9332 38.4464 26.8111 39.4177C26.75 39.9727 26.6834 40.5665 26.6335 41.1493C26.5522 41.9297 26.5522 42.7165 26.6335 43.4969C26.6388 43.5283 26.6551 43.5567 26.6796 43.577C26.704 43.5974 26.7349 43.6083 26.7667 43.6079H27.8767C28.177 45.6932 28.7364 47.7328 29.5417 49.6796C30.1799 51.1171 31.0402 52.4158 32.1613 53.0707C33.2677 53.6256 34.5102 53.851 35.741 53.72C36.0111 53.72 36.2831 53.6978 36.5569 53.6534C36.492 53.8327 36.492 54.0291 36.5569 54.2084L35.4136 54.386ZM45.842 89.3122L35.6744 91.954C35.8798 80.1602 36.5236 58.8316 36.5236 58.8316C36.5388 58.8302 36.5529 58.8231 36.5632 58.8118C36.5735 58.8005 36.5792 58.7858 36.5791 58.7705C36.5791 58.7705 36.5791 58.4708 36.7955 58.4653C37.0371 58.502 37.2607 58.6147 37.4338 58.7871C37.6861 58.9782 37.9038 59.2109 38.0776 59.4754C38.1826 59.6392 38.2648 59.8166 38.3218 60.0026C38.3413 60.1301 38.3691 60.2561 38.405 60.38C38.4123 60.4019 38.4266 60.4208 38.4456 60.4339C38.4646 60.4469 38.4874 60.4533 38.5105 60.4521C38.534 60.4482 38.5553 60.4359 38.5706 60.4176C38.5859 60.3993 38.5941 60.3761 38.5937 60.3522C38.5884 60.2467 38.5697 60.1423 38.5382 60.0415C38.514 59.8554 38.5291 59.6663 38.5826 59.4865C38.6058 59.4087 38.656 59.3419 38.7243 59.2981C38.7925 59.2543 38.8742 59.2365 38.9545 59.2478C39.1769 59.2566 39.3915 59.332 39.5705 59.4643C39.7501 59.5951 39.8965 59.7661 39.9979 59.9638C40.0062 59.9802 40.0179 59.9947 40.0322 60.0062C40.0466 60.0177 40.0633 60.0259 40.0811 60.0304C40.0969 60.0371 40.1139 60.0405 40.1311 60.0405C40.1483 60.0405 40.1652 60.0371 40.181 60.0304C40.3436 59.9137 40.5362 59.8463 40.736 59.8361C40.7881 59.836 40.839 59.8505 40.8832 59.878C40.9274 59.9055 40.9629 59.9448 40.9858 59.9915C41.0786 60.2284 41.1257 60.4808 41.1245 60.7352C41.1384 61.1388 41.1273 61.5429 41.0912 61.9451C41.0959 61.9681 41.1066 61.9895 41.1222 62.007C41.1378 62.0245 41.1578 62.0377 41.18 62.045C41.1976 62.0473 41.2154 62.0462 41.2324 62.0415C41.2495 62.0369 41.2654 62.029 41.2794 62.0181C41.2933 62.0073 41.305 61.9937 41.3136 61.9784C41.3223 61.963 41.3278 61.946 41.3299 61.9285C41.4249 61.2207 41.5809 60.5225 41.7961 59.8417C41.8869 59.5354 42.0316 59.2479 42.2234 58.9925C42.2542 58.95 42.2941 58.915 42.3402 58.89C42.3863 58.865 42.4375 58.8507 42.4898 58.8482C42.5949 58.8526 42.6968 58.8854 42.7847 58.9431C42.8727 59.0007 42.9434 59.0811 42.9893 59.1757C43.1471 59.4991 43.2305 59.8537 43.2335 60.2135C43.2329 60.246 43.2436 60.2776 43.2639 60.303C43.2842 60.3283 43.3127 60.3458 43.3445 60.3522C43.3775 60.3585 43.4116 60.353 43.441 60.3368C43.4704 60.3206 43.4932 60.2947 43.5055 60.2635C43.6706 59.8532 43.877 59.4608 44.1215 59.0924C44.2186 58.9566 44.3323 58.8335 44.4601 58.7261C44.5278 58.6713 44.6116 58.6401 44.6987 58.6373C44.9017 58.6748 45.0858 58.7805 45.2204 58.937C45.4547 59.1826 45.6545 59.459 45.8143 59.7584C45.8278 59.784 45.849 59.8047 45.8749 59.8176C45.9008 59.8305 45.93 59.8351 45.9586 59.8306C45.9866 59.8251 46.0124 59.8117 46.033 59.792C46.0537 59.7724 46.0683 59.7472 46.0751 59.7196C46.1211 59.4356 46.2354 59.167 46.4081 58.937C46.458 58.874 46.5243 58.8261 46.5998 58.7987C46.6752 58.7712 46.7569 58.7653 46.8355 58.7816C46.9473 58.8166 47.0472 58.8819 47.1241 58.9703C47.2585 59.1196 47.3757 59.2834 47.4737 59.4587C47.7179 59.9162 47.9186 60.3956 48.0731 60.8906C48.0809 60.9171 48.0983 60.9398 48.1219 60.9541C48.1455 60.9685 48.1737 60.9736 48.2008 60.9683C48.2139 60.9669 48.2267 60.9629 48.2383 60.9566C48.2499 60.9503 48.2601 60.9417 48.2684 60.9314C48.2766 60.921 48.2828 60.9092 48.2864 60.8965C48.2901 60.8837 48.2911 60.8704 48.2896 60.8573C48.2574 60.4453 48.3123 60.0312 48.4505 59.6419C48.491 59.5236 48.5651 59.4197 48.6637 59.3428C48.7622 59.266 48.881 59.2194 49.0055 59.209C49.1627 59.2199 49.3158 59.2641 49.4545 59.3387C49.5933 59.4134 49.7146 59.5167 49.8103 59.6419C50.1293 60.0257 50.3876 60.4562 50.5762 60.9184C50.5787 60.9253 50.5825 60.9317 50.5875 60.9372C50.5925 60.9427 50.5985 60.9471 50.6053 60.9502C50.612 60.9533 50.6193 60.955 50.6267 60.9553C50.6341 60.9555 50.6414 60.9543 50.6483 60.9517C50.6483 60.9517 50.7982 87.7526 50.8037 88.0468C50.504 88.13 48.6614 88.5851 45.842 89.3122ZM50.0212 50.39C49.9435 50.2846 49.8269 50.3567 49.5772 50.39C49.6134 50.2163 49.6019 50.036 49.5439 49.8683C49.6882 49.7018 49.8214 49.5353 49.9213 49.3966C50.0141 49.281 50.0754 49.1433 50.0989 48.997C50.0998 48.954 50.0867 48.9118 50.0617 48.8768C50.0367 48.8418 50.0011 48.8158 49.9601 48.8027C49.7944 48.7751 49.6241 48.7983 49.4717 48.8693C49.4717 48.6917 49.4384 45.6448 49.4273 45.2729C49.4273 44.7512 49.1332 38.6129 49.1221 38.4353L50.7871 38.341C50.7871 38.5741 50.8814 45.4949 50.8981 46.111C50.8981 46.5328 51.0757 50.1291 51.0868 50.2845L50.0212 50.39ZM58.9955 86.8868L53.7341 88.3409C53.7341 87.8414 53.6675 50.6397 53.662 50.0459L55.1549 49.8572C55.2715 49.8572 55.2659 50.0459 55.2659 46.1665C57.8189 45.334 60.8159 43.3915 62.098 40.8718V45.9722C59.5228 46.0555 59.7781 46.2497 58.657 45.556C58.4408 45.4069 58.2056 45.2875 57.9577 45.2008C57.9092 45.1816 57.8565 45.176 57.8051 45.1844C57.7537 45.1928 57.7055 45.2149 57.6657 45.2485C57.6259 45.2821 57.5959 45.3258 57.5789 45.375C57.5619 45.4243 57.5585 45.4772 57.5692 45.5282C57.6025 45.8834 58.1242 46.4051 57.9632 46.777C57.6054 47.532 57.0974 48.2061 56.4703 48.7583C56.2316 48.9359 56.1262 48.8748 56.104 49.0136C56.1004 49.0434 56.1065 49.0736 56.1216 49.0996C56.1366 49.1257 56.1596 49.1461 56.1872 49.1579C56.6923 49.2467 57.6247 49.8905 58.8901 48.7971C59.1149 48.6117 59.3178 48.4013 59.495 48.17L62.1091 48.6251C62.1091 53.5535 62.1535 58.1212 62.3033 62.5667C62.3866 65.1086 62.5253 67.9058 62.7251 70.8418C62.9527 74.1718 63.2801 77.6738 63.7075 81.1592C63.8851 82.5911 64.0904 84.0119 64.3069 85.4272L58.9955 86.8868ZM55.2659 46.0444V39.7784C55.5989 39.3732 55.7599 39.2234 56.9309 37.7083C57.6025 37.7915 60.8992 38.3409 62.0536 40.7108C62.0447 40.7074 62.0348 40.7074 62.0258 40.7108C60.6938 43.0862 57.7523 45.0065 55.2659 46.0555V46.0444ZM64.984 22.085C65.539 21.4967 64.9007 20.7641 65.4835 20.2036C65.6053 20.0627 65.7539 19.9475 65.9206 19.8646C66.0874 19.7817 66.2689 19.7328 66.4547 19.7207C65.9352 20.4145 65.5975 21.2273 65.4724 22.085H64.984ZM65.4446 22.2349C65.3459 22.8405 65.2939 23.4528 65.2892 24.0664H64.9784C64.9784 23.8888 64.8119 22.4014 64.7897 22.246L64.8564 22.196L65.4446 22.2349ZM66.6157 19.6597C67.069 19.4662 67.5549 19.3607 68.0476 19.3489C68.5194 18.9826 69.535 18.3332 69.535 18.3332C69.1373 18.6402 68.766 18.9799 68.425 19.3489C68.3695 19.4654 68.647 19.4377 68.98 19.3877C69.1532 19.4989 69.3054 19.6398 69.4295 19.804C70.1122 20.7142 69.1187 21.3302 69.8735 22.0628H68.2085C68.1942 22.0577 68.1785 22.0577 68.1641 22.0628C68.1607 22.0687 68.1589 22.0754 68.1589 22.0822C68.1589 22.089 68.1607 22.0957 68.1641 22.1017V22.8121C68.0694 22.7328 67.9526 22.6845 67.8296 22.6736C67.7066 22.6627 67.5832 22.6897 67.4759 22.751C67.5647 21.8519 67.9477 22.0129 65.6777 22.0295C65.7943 21.3025 66.0884 20.1536 66.5657 19.6874C66.5763 19.6848 66.5863 19.68 66.5949 19.6733C66.6035 19.6666 66.6106 19.6582 66.6157 19.6486V19.6597ZM70.7671 22.69C70.7036 23.157 70.6147 23.6201 70.5007 24.0775H68.4805C68.4805 23.8999 68.3029 22.3514 68.2862 22.2016L70.1843 22.3015C70.4341 22.4347 70.6616 22.5013 70.7671 22.6789V22.69ZM67.315 22.3181L67.0764 24.0775H65.5501C65.5553 23.4684 65.5998 22.8604 65.6833 22.2571L67.315 22.3181ZM65.5501 24.305H67.2151C67.426 24.305 67.3261 24.0442 67.5037 22.973H67.6979C67.598 23.2172 67.1984 24.4049 67.4593 24.4493H68.0531C68.0668 24.4498 68.0803 24.4457 68.0914 24.4377C68.1024 24.4296 68.1105 24.4181 68.1142 24.4049C68.1159 24.391 68.1122 24.377 68.104 24.3657C68.0957 24.3543 68.0835 24.3466 68.0698 24.3439C68.0143 24.3439 67.8312 24.2606 67.6314 24.2107C67.7339 23.7942 67.7934 23.3683 67.809 22.9397C67.8965 22.9394 67.9833 22.9564 68.0642 22.9897C68.122 23.0103 68.1778 23.0363 68.2307 23.0674C68.2307 23.1728 68.1919 22.6678 68.2807 24.1774C68.2807 24.3161 68.2529 24.2995 70.5506 24.3272C70.7116 24.8822 71.6051 25.2707 71.2499 25.7924C70.9946 26.1698 70.1732 26.6194 70.5784 27.1189C70.852 27.3659 71.173 27.5547 71.5219 27.6739C71.4885 27.7498 71.437 27.8165 71.372 27.8681C70.7171 28.5064 70.7615 29.5331 71.8604 29.0225C71.8677 29.0129 71.8715 29.0012 71.8715 28.9892C71.8715 28.9772 71.8677 28.9655 71.8604 28.9559C71.8504 28.9473 71.8376 28.9426 71.8244 28.9426C71.8111 28.9426 71.7983 28.9473 71.7883 28.9559C70.7782 29.3389 71.028 28.4453 71.4831 28.0402C72.4765 27.1522 69.818 27.4852 71.039 26.3752C71.1883 26.2507 71.3225 26.1092 71.4387 25.9534C71.7495 25.4927 71.4386 25.0876 71.0446 24.6769C70.9306 24.5699 70.8416 24.4391 70.7837 24.2939C70.8026 24.2742 70.8143 24.2488 70.817 24.2218C70.9502 23.2394 71.2056 23.1118 71.0224 22.64C71.0613 22.2293 71.1057 22.1849 71.0224 22.085C71.0118 22.0715 70.9983 22.0606 70.983 22.0529C70.9676 22.0452 70.9508 22.041 70.9336 22.0406H70.251C69.0744 21.3691 70.6561 20.3756 69.1132 19.3322L69.5128 19.2545C69.8735 19.1935 70.2676 19.3433 70.251 19.6597C70.1955 20.6587 71.1667 19.8151 71.0723 20.8418C71.0224 21.3469 71.2277 21.2026 71.5219 21.5467C71.816 21.8908 71.7494 21.9185 71.6162 22.3459C71.483 22.7732 71.6884 22.8343 71.8882 23.023C72.1823 23.3171 71.3887 23.9609 72.2767 24.2939C72.5375 24.3494 72.5708 24.1552 72.7873 24.0275C73.2479 23.7667 73.4866 23.9054 73.6031 24.3439C73.6411 24.4741 73.6503 24.611 73.6302 24.7451C73.61 24.8793 73.5611 25.0075 73.4866 25.1209C73.226 25.4618 72.8708 25.7185 72.4654 25.859C72.4365 25.8691 72.4123 25.8892 72.397 25.9157C72.3817 25.9422 72.3764 25.9733 72.3821 26.0033C72.5153 26.7748 72.5098 26.8469 72.8761 28.5452C70.151 30.2491 68.7691 29.1002 68.4749 28.7894V27.8293C68.4791 27.8196 68.4812 27.8092 68.4812 27.7987C68.4812 27.7882 68.4791 27.7779 68.4749 27.7682C68.4553 27.7605 68.4335 27.7605 68.4139 27.7682C67.9957 27.7656 67.5831 27.6728 67.204 27.4963C66.8254 27.3245 66.4941 27.0636 66.2383 26.7359C65.7476 26.0235 65.5056 25.169 65.5501 24.305ZM72.2101 44.0186C72.6545 42.994 73.17 42.0019 73.753 41.0494C73.753 41.0494 77.9988 41.7709 79.8081 44.2739C79.8081 44.2739 76.5779 48.6362 74.7797 49.1745C72.9815 49.7129 67.5647 49.0303 62.1368 48.5807C62.1385 48.5668 62.1349 48.5528 62.1266 48.5415C62.1184 48.5301 62.1062 48.5224 62.0924 48.5196C59.4062 47.9646 59.4062 47.8703 59.3174 47.9646C59.1287 48.0978 58.3018 49.5742 56.5424 49.0192C57.2354 48.4298 57.7922 47.6969 58.1741 46.8713C58.3628 46.3163 57.6913 45.617 57.7856 45.4505C57.8399 45.4501 57.8933 45.4635 57.941 45.4894C59.051 45.9223 58.7624 46.3496 60.5495 46.2331C61.271 46.1831 62.0536 46.0888 62.0536 46.0888C62.0609 46.0881 62.068 46.0859 62.0745 46.0825C62.0809 46.079 62.0867 46.0743 62.0913 46.0686C62.0959 46.063 62.0994 46.0564 62.1015 46.0494C62.1036 46.0424 62.1043 46.035 62.1035 46.0277C63.5511 45.8926 64.9905 45.6814 66.4159 45.395C67.3705 45.1231 71.4553 43.9909 72.2267 44.0242L72.2101 44.0186ZM69.3296 93.9298C69.3257 93.9375 69.3237 93.946 69.3237 93.9547C69.3237 93.9634 69.3257 93.972 69.3296 93.9797C68.8967 94.4459 65.6999 95.4282 65.6999 95.4282C65.4996 94.7614 65.0888 94.1772 64.5289 93.7632L64.8841 93.6245L65.1394 93.5135C65.3114 93.4358 65.4613 93.3525 65.5889 93.2859L66.0385 93.0418C66.0599 93.0321 66.0781 93.0166 66.0909 92.9969C66.1037 92.9772 66.1106 92.9542 66.1106 92.9307V92.4978H69.1687V92.8475C69.1687 92.9141 69.1687 93.064 69.202 93.1805C69.2353 93.2971 69.202 93.397 69.2353 93.5135C69.2686 93.6301 69.2353 93.63 69.2353 93.6855C69.2353 93.741 69.3352 93.8465 69.3463 93.9353L69.3296 93.9298ZM66.4769 92.1205C66.4743 92.1463 66.4743 92.1723 66.4769 92.1982V92.2592H66.0773L66.044 91.6487C66.1869 91.6809 66.3314 91.705 66.4769 91.7209V91.793C66.4739 91.8244 66.4739 91.856 66.4769 91.8874V91.9873C66.4785 92.0339 66.4841 92.0803 66.4936 92.126L66.4769 92.1205ZM66.7544 91.904V91.7653C67.0003 91.7796 67.2468 91.7796 67.4926 91.7653V92.0761C67.4899 92.1019 67.4899 92.1279 67.4926 92.1538V92.1871H66.7544V92.1371C66.7571 92.1113 66.7571 92.0852 66.7544 92.0594C66.7572 92.0206 66.7572 91.9816 66.7544 91.9428V91.904ZM68.4916 92.0261C68.4959 92.0923 68.509 92.1576 68.5304 92.2203H67.7146C67.7173 92.1945 67.7173 92.1685 67.7146 92.1426C67.7174 92.1038 67.7174 92.0649 67.7146 92.0261V91.7874C67.9858 91.7628 68.2547 91.7183 68.5193 91.6543V92.015L68.4916 92.0261ZM68.7691 91.7874C68.7721 91.7505 68.7721 91.7134 68.7691 91.6765C68.7723 91.6414 68.7723 91.6061 68.7691 91.571C68.9223 91.5272 69.0725 91.4735 69.2186 91.4101L69.1742 92.2259H68.7691C68.7729 92.1909 68.7729 92.1555 68.7691 92.1205C68.7745 92.0911 68.7745 92.061 68.7691 92.0317C68.7719 91.9873 68.7719 91.9428 68.7691 91.8984C68.7913 91.8651 68.7857 91.8263 68.7857 91.793L68.7691 91.7874ZM76.145 82.0528C75.9175 82.1083 75.6511 82.1693 75.3625 82.247C75.0739 82.3247 72.471 83.0518 72.2712 83.1128L70.8947 83.5679C71.205 81.6121 71.5288 79.6584 71.866 77.7071C72.1437 75.8377 72.5236 73.985 73.0037 72.1571C73.2424 72.9064 73.5033 73.6834 73.7808 74.4826C74.3025 75.9533 74.8908 77.5017 75.5679 79.1168C75.9453 80.0214 76.356 80.9483 76.7889 81.8918L76.145 82.0528ZM80.9014 89.2678C78.9964 85.9499 77.2949 82.5192 75.8065 78.9947C75.1294 77.3907 74.5355 75.8478 74.0083 74.3826C73.0788 71.7943 72.2823 69.1602 71.6218 66.4906C70.9254 63.8282 70.4538 61.1121 70.2121 58.3709C70.2121 58.3631 70.2105 58.3554 70.2074 58.3483C70.2043 58.3412 70.1997 58.3348 70.1939 58.3296C70.1882 58.3243 70.1814 58.3204 70.174 58.3179C70.1666 58.3155 70.1588 58.3146 70.151 58.3154C70.1358 58.3168 70.1217 58.3238 70.1114 58.3351C70.1011 58.3464 70.0955 58.3612 70.0956 58.3765C70.3126 61.1289 70.7619 63.8581 71.4387 66.5349C71.8216 68.15 72.3156 69.976 72.9483 71.9684C72.409 73.8408 71.9937 75.7468 71.705 77.6738C71.3165 79.7828 69.5516 90.5276 69.485 90.9938C68.8956 91.2903 68.2513 91.4622 67.5925 91.4989C66.9372 91.5416 66.2798 91.4587 65.6555 91.2547C64.5678 85.8706 63.7932 80.428 63.3356 74.9543C63.0248 71.4911 62.8084 68.1223 62.6585 65.042C62.5198 62.267 62.2423 50.4955 62.2367 50.057C68.3119 50.9938 74.511 50.7431 80.4907 49.3189C80.4907 49.4909 80.574 66.5239 80.5795 67.7338C80.6226 69.8726 80.7875 72.0073 81.0735 74.1274C81.24 75.4816 81.4509 76.9024 81.7062 78.3565C81.8949 79.3999 82.1058 80.4599 82.3389 81.4978C82.9327 84.1285 84.4922 88.513 84.4922 88.513C83.5654 89.0846 81.9559 89.2789 80.8958 89.2955L80.9014 89.2678ZM84.3035 89.2678L83.571 89.573V89.5064C83.5406 89.4174 83.4976 89.3333 83.4433 89.2567C83.6947 89.1901 83.9413 89.1067 84.1814 89.0069C84.1959 89.1045 84.2362 89.1964 84.298 89.2733L84.3035 89.2678ZM83.3379 89.6729L82.6552 89.9671C82.6208 89.7798 82.5471 89.6019 82.4387 89.4453C82.6829 89.4065 82.9382 89.3621 83.1935 89.3011V89.4343C83.2365 89.5235 83.2926 89.6059 83.36 89.6784L83.3379 89.6729ZM82.1058 90.2279C82.0114 90.0281 81.8504 89.7173 81.7561 89.5342L82.2112 89.4842C82.2491 89.6864 82.3347 89.8767 82.461 90.0392L82.1058 90.2279ZM85.5689 90.3111C85.6189 90.4071 85.6804 90.4966 85.7521 90.5776C85.5301 91.177 82.9438 93.3026 82.9438 93.3026C82.5065 92.7577 81.905 92.3684 81.2289 92.1926C82.633 90.8606 82.4332 90.8828 82.1779 90.4499C82.6996 90.2445 83.3878 89.956 83.8984 89.734C84.409 89.512 84.5644 89.4398 85.0084 89.2178C85.1667 89.5965 85.358 89.9604 85.58 90.3056L85.5689 90.3111ZM84.9029 89.0569L84.52 89.1956C84.5065 89.0857 84.4623 88.9818 84.3923 88.8959C84.514 88.8365 84.6309 88.7679 84.742 88.6905L84.9029 89.0569ZM84.9751 88.0856C84.8643 88.2332 84.7291 88.3608 84.5755 88.463C83.6972 86.1952 83.0175 83.8554 82.5442 81.47C82.3222 80.4322 82.1224 79.3776 81.9448 78.3287C81.7006 76.8912 81.4952 75.4649 81.3287 74.1163C81.0512 72.0064 80.8863 69.8833 80.8348 67.7559C80.8348 66.4017 80.635 52.8209 80.585 49.3133L81.14 49.169C81.14 49.724 81.2122 66.5183 81.2177 67.7559C81.2556 69.8377 81.4001 71.9161 81.6506 73.983C81.8005 75.2984 81.9892 76.6914 82.2056 78.1011C82.3832 79.1223 82.5775 80.1491 82.7995 81.1592C83.2915 83.5375 84.0069 85.864 84.9362 88.1078L84.9751 88.0856ZM85.1139 87.8136C85.0963 87.8656 85.074 87.9157 85.0472 87.9635C84.5444 86.7152 84.1218 85.4361 83.7818 84.134C83.2557 82.1217 82.8315 80.0841 82.5109 78.029C82.2833 76.6249 82.0946 75.254 81.9559 73.922C81.6784 71.4467 81.5396 69.2434 81.5285 67.7282C81.5285 66.485 81.2954 49.6074 81.2843 49.1135L81.8393 48.9581C81.8393 49.9516 82.1945 71.8685 82.1945 73.5002C82.2429 75.4598 82.4733 77.4107 82.8827 79.3277C83.4698 82.1929 84.2128 85.0239 85.1083 87.8081L85.1139 87.8136ZM83.915 44.1241C84.0767 44.2796 84.1874 44.4805 84.2326 44.7002C84.2777 44.92 84.2553 45.1482 84.1682 45.3549C84.081 45.5617 83.9333 45.7371 83.7445 45.8582C83.5556 45.9793 83.3345 46.0403 83.1103 46.0333C81.684 46.0333 81.6174 43.8133 83.1103 43.7467C83.2628 43.753 83.4125 43.7896 83.5507 43.8544C83.6888 43.9192 83.8127 44.0108 83.915 44.1241ZM83.4655 46.2608C83.3878 50.0903 83.3822 50.7674 82.6219 50.7785C82.0169 50.7785 82.0669 50.0459 82.0669 49.9904C82.0678 49.9774 82.0645 49.9645 82.0575 49.9535C82.0505 49.9425 82.0402 49.9341 82.0281 49.9294C82.0281 49.3744 81.9837 45.7003 81.9837 45.7003C82.1393 45.9359 82.3649 46.1168 82.6288 46.2173C82.8926 46.3179 83.1814 46.3331 83.4544 46.2608H83.4655ZM53.8951 8.1101L57.0586 7.77155L84.8918 11.812C84.8918 12.8887 84.9585 78.967 84.9585 79.5997L83.3323 80.0659C83.2823 79.8106 83.2268 79.5497 83.1769 79.2944C82.769 77.3939 82.5368 75.4599 82.4831 73.5169C82.4831 71.8852 82.0724 52.2881 82.0225 50.6509C82.2611 51.1393 83.2158 51.2669 83.4933 50.2957C83.7708 49.3244 83.6597 47.2765 83.5765 46.222C83.761 46.1513 83.9291 46.0436 84.0704 45.9056C84.1958 45.7783 84.2947 45.6274 84.3613 45.4615C84.4278 45.2957 84.4608 45.1183 84.4582 44.9396C84.4556 44.761 84.4176 44.5846 84.3462 44.4208C84.2749 44.2569 84.1717 44.1089 84.0427 43.9853C83.8944 43.8506 83.719 43.7493 83.5282 43.6883C83.3374 43.6272 83.1357 43.6079 82.9368 43.6316C82.7379 43.6553 82.5463 43.7214 82.3752 43.8255C82.2041 43.9296 82.0573 44.0693 81.9448 44.2351V41.5877C81.9448 41.5877 83.0825 37.3531 81.5452 34.456C79.3252 30.2713 73.8973 28.795 73.0315 28.5841C72.9926 28.2344 72.8317 26.9968 72.6818 26.0866C73.1041 25.9237 73.4703 25.6423 73.7364 25.2763C73.8322 25.1336 73.8937 24.9706 73.9158 24.8001C73.938 24.6296 73.9202 24.4563 73.864 24.2939L73.8307 24.2051C74.4757 23.1218 74.6747 21.8303 74.3857 20.6032C75.4457 20.4311 75.2293 19.6763 75.5567 19.0547C75.8842 18.4331 76.5779 17.7782 76.0507 16.8347C75.5234 15.8912 75.0683 16.0855 74.6021 15.758C74.1359 15.4306 73.7641 15.4694 73.0481 15.647C72.3322 15.8246 72.6042 15.7969 72.0214 15.5194C71.4387 15.2419 70.9613 15.3584 70.3175 16.252C69.6737 17.1455 70.5285 18.0169 70.5285 18.0169C67.92 17.8504 66.76 19.3711 66.5657 19.6541C66.5102 19.6541 66.0884 19.4321 65.3336 20.087C64.5788 20.7419 65.3336 21.5911 64.6343 22.0517C64.3679 22.2349 64.0793 22.4014 63.8906 22.5679C63.7141 22.6945 63.5666 22.8572 63.4577 23.0452C62.9027 24.0941 65.206 23.8444 63.2024 25.3706C62.2811 26.0755 63.1636 26.3086 63.2024 26.8025C63.2024 26.9968 63.0526 27.0689 62.9305 26.9912C62.9195 26.9831 62.9057 26.9797 62.8921 26.9818C62.8786 26.9839 62.8664 26.9913 62.8583 27.0023C62.8503 27.0133 62.8469 27.0271 62.849 27.0407C62.851 27.0542 62.8584 27.0664 62.8694 27.0745C63.1747 27.2965 63.6131 26.9302 63.1081 26.2531C62.714 25.6981 63.3745 25.6592 63.9461 25.082C64.268 24.7546 64.3624 24.527 64.3069 24.2773C64.0904 23.3782 62.7695 23.6446 64.6621 22.3459C64.7453 24.6047 64.5622 24.3106 65.2726 24.3328C65.2338 25.7203 65.7388 27.1577 67.0819 27.7238C67.4701 27.8865 67.8876 27.9677 68.3084 27.9625L68.375 28.745C62.6752 30.4711 59.9113 33.6013 56.5813 37.7249C56.1079 38.2894 55.6722 38.8846 55.277 39.5065V36.2708C55.2775 36.2519 55.2738 36.2331 55.2661 36.2159C55.2584 36.1986 55.247 36.1832 55.2326 36.1709C55.2048 36.1427 55.1668 36.1268 55.1272 36.1265L53.8895 36.1598L53.8951 8.1101ZM52.5298 36.4762L54.994 36.4151C54.994 37.2032 55.0273 49.3411 55.0273 49.6796L51.2255 50.2346C51.2255 50.0681 51.1756 44.8678 51.1589 44.2517C51.1589 43.7411 50.9425 38.5574 50.9314 38.3298L52.4743 38.2244C52.5038 38.2217 52.5313 38.2084 52.5517 38.187C52.5721 38.1656 52.5841 38.1374 52.5853 38.1079L52.5298 36.4762ZM47.063 36.7148L47.224 38.3798C47.2268 38.4117 47.2415 38.4414 47.2651 38.463C47.2887 38.4846 47.3196 38.4965 47.3516 38.4964L49.0166 38.4242C49.0166 38.6296 49.061 41.843 49.0721 42.3092C49.0832 42.7754 49.3607 48.725 49.3718 48.897C48.9066 49.1034 48.4577 49.3446 48.0287 49.6186C47.1663 49.6521 46.3026 49.6336 45.4424 49.5631C44.9858 49.5305 44.5338 49.4506 44.0938 49.3244C44.0938 49.3244 43.894 43.5912 43.8607 42.9474C43.8329 42.3924 43.4777 36.9202 43.4611 36.6926L52.4299 36.4928L52.3744 37.9969L47.4737 38.2633L47.3461 36.7647L47.063 36.7148Z" fill="#978A82"/>
<path fill-rule="evenodd" clip-rule="evenodd" d="M83.1218 48.653L82.872 47.7983C83.2272 47.7594 83.1828 47.3321 82.8387 47.3321C82.7704 47.3259 82.7023 47.3469 82.6493 47.3905C82.5963 47.4342 82.5627 47.4969 82.5557 47.5652C82.5598 47.6276 82.5872 47.6861 82.6324 47.7293C82.6776 47.7724 82.7374 47.797 82.7999 47.7983L82.5557 48.6086L83.1218 48.653ZM98.4731 36.9869C98.4503 37.0899 98.4509 37.1967 98.4749 37.2994C98.4989 37.4022 98.5456 37.4982 98.6116 37.5805C98.6777 37.6627 98.7614 37.7291 98.8565 37.7747C98.9516 37.8204 99.0558 37.844 99.1613 37.844C99.2668 37.844 99.3709 37.8204 99.466 37.7747C99.5612 37.7291 99.6448 37.6627 99.7109 37.5805C99.7769 37.4982 99.8237 37.4022 99.8477 37.2994C99.8716 37.1967 99.8723 37.0899 99.8495 36.9869C99.8619 36.8892 99.8534 36.7899 99.8245 36.6958C99.7956 36.6016 99.747 36.5147 99.6819 36.4408C99.6168 36.3669 99.5367 36.3076 99.4469 36.2671C99.3571 36.2265 99.2598 36.2056 99.1613 36.2056C99.0628 36.2056 98.9654 36.2265 98.8756 36.2671C98.7859 36.3076 98.7058 36.3669 98.6407 36.4408C98.5756 36.5147 98.5269 36.6016 98.498 36.6958C98.4691 36.7899 98.4606 36.8892 98.4731 36.9869ZM98.7339 36.9869C98.7006 36.1211 99.6275 36.1266 99.5942 36.9869C99.5664 37.7361 98.7617 37.7472 98.7339 36.9869Z" fill="#978A82"/>
<path fill-rule="evenodd" clip-rule="evenodd" d="M101.558 39.3842C101.558 39.0734 101.409 35.8544 101.375 35.255C101.32 34.4447 101.27 33.8786 101.27 33.8786C101.271 33.8606 101.266 33.8428 101.256 33.8278C101.246 33.8127 101.231 33.8014 101.214 33.7954L100.565 33.6067C100.56 33.5928 100.552 33.5802 100.541 33.5696C100.53 33.5591 100.518 33.5509 100.504 33.5456H100.448L97.8177 33.701C97.8043 33.7021 97.7915 33.7075 97.7815 33.7165C97.7714 33.7256 97.7647 33.7377 97.7622 33.751C97.7622 34.306 97.7234 35.416 97.7289 36.5704C97.7289 37.2808 97.8011 40.7884 97.8011 40.7884C97.8038 40.8238 97.8194 40.8569 97.845 40.8815C97.8706 40.906 97.9044 40.9203 97.9398 40.9216H100.643C100.68 40.9214 100.715 40.9076 100.743 40.8827L100.77 40.8439H101.508C101.53 40.852 101.554 40.852 101.575 40.8439C101.592 40.8259 101.602 40.8022 101.603 40.7773C101.603 40.7773 101.581 40.2001 101.558 39.3842ZM98.0564 40.6274C98.0564 40.2944 97.8455 34.2394 97.8566 33.8009L100.349 33.7343C100.349 33.8509 100.46 40.0724 100.476 40.6274H98.0564ZM100.759 40.7107C100.759 40.3222 100.559 33.8564 100.554 33.7399L101.109 33.9397V35.2661C101.109 35.9266 101.27 39.0845 101.292 39.3953C101.331 40.0169 101.37 40.5053 101.386 40.6829L100.759 40.7107ZM34.6976 23.6278C34.6698 23.6253 34.6417 23.6289 34.6154 23.6383C34.5891 23.6477 34.5651 23.6626 34.5451 23.6821C34.525 23.7016 34.5095 23.7252 34.4994 23.7513C34.4893 23.7773 34.485 23.8053 34.4867 23.8331V24.2993C34.4895 24.3568 34.5139 24.4111 34.5551 24.4512C34.5963 24.4914 34.6512 24.5145 34.7087 24.5158C34.7359 24.5158 34.7628 24.5103 34.7878 24.4996C34.8128 24.4889 34.8353 24.4732 34.854 24.4534C34.8727 24.4337 34.8872 24.4103 34.8966 24.3848C34.906 24.3592 34.91 24.3321 34.9085 24.3049C34.8918 24.0052 34.9695 23.6444 34.6976 23.6278ZM65.994 22.934C65.994 23.206 65.9108 23.5556 66.1661 23.5667C66.4214 23.5778 66.3492 23.2448 66.3714 22.984C66.3747 22.9592 66.3731 22.934 66.3666 22.9099C66.3602 22.8857 66.349 22.8631 66.3338 22.8432C66.3186 22.8234 66.2997 22.8068 66.278 22.7942C66.2564 22.7817 66.2325 22.7736 66.2077 22.7703C66.1829 22.767 66.1578 22.7687 66.1336 22.7751C66.1095 22.7816 66.0868 22.7927 66.067 22.8079C66.0471 22.8231 66.0305 22.8421 66.018 22.8637C66.0055 22.8854 65.9973 22.9093 65.994 22.934ZM69.1353 22.762C69.1104 22.7597 69.0852 22.7626 69.0614 22.7704C69.0376 22.7782 69.0157 22.7908 68.9969 22.8075C68.9782 22.8241 68.9631 22.8445 68.9525 22.8672C68.942 22.8899 68.9362 22.9145 68.9355 22.9396V23.3614C68.9355 23.4114 68.9554 23.4594 68.9908 23.4948C69.0262 23.5302 69.0742 23.5501 69.1242 23.5501C69.1743 23.5501 69.2223 23.5302 69.2577 23.4948C69.2931 23.4594 69.3129 23.4114 69.3129 23.3614V22.9729C69.3136 22.9223 69.296 22.8731 69.2634 22.8344C69.2308 22.7957 69.1853 22.77 69.1353 22.762Z" fill="#978A82"/>
</svg>
