<svg width="27" height="27" viewBox="0 0 27 27" fill="none" xmlns="http://www.w3.org/2000/svg">
<path fill-rule="evenodd" clip-rule="evenodd" d="M12.2946 0H6.72923C5.21914 0.038814 3.7871 0.952357 3.11538 2.30538L0 8.30769V8.33997H12.2946V0ZM0 24.9231V10.7507H27V24.9231C27 25.4739 26.7811 26.0022 26.3917 26.3917C26.0022 26.7811 25.4739 27 24.9231 27H2.07692C1.52609 27 0.997816 26.7811 0.608316 26.3917C0.218818 26.0022 0 25.4739 0 24.9231ZM27 8.30769V8.33997H14.7054V0H20.2708C21.8164 0.000820144 23.3006 0.921271 23.9885 2.30538L27 8.30769ZM12.2937 14.8593C12.2937 14.1936 12.8334 13.654 13.4991 13.654C14.1648 13.654 14.7044 14.1936 14.7044 14.8593V18.7232H16.3408C16.7512 18.7232 17.1212 18.9704 17.2782 19.3496C17.4353 19.7287 17.3485 20.1651 17.0583 20.4552L14.217 23.2966C13.8208 23.6927 13.1784 23.6927 12.7821 23.2966L9.94084 20.4552C9.65067 20.1651 9.56386 19.7287 9.72091 19.3496C9.87795 18.9704 10.2479 18.7232 10.6583 18.7232H12.2937V14.8593Z" fill="#A3968E"/>
</svg>
