<svg width="79" height="57" viewBox="0 0 79 57" fill="none" xmlns="http://www.w3.org/2000/svg">
<path d="M23.2082 56.1668C20.3262 56.1668 17.8766 55.1582 15.8592 53.1408C13.8419 51.1234 12.8332 48.6738 12.8332 45.7918H4.18734L5.74359 38.8752H15.5134C16.4932 37.78 17.646 36.9299 18.9717 36.3246C20.2974 35.7194 21.7096 35.4168 23.2082 35.4168C24.7068 35.4168 26.1189 35.7194 27.4446 36.3246C28.7703 36.9299 29.9231 37.78 30.903 38.8752H45.3415L52.604 7.75016H14.7353L15.0811 6.28037C15.4269 4.66648 16.2195 3.3552 17.4587 2.34652C18.6979 1.33784 20.1533 0.833496 21.8248 0.833496H61.2498L58.0509 14.6668H68.1665L78.5415 28.5002L75.0832 45.7918H68.1665C68.1665 48.6738 67.1578 51.1234 65.1405 53.1408C63.1231 55.1582 60.6734 56.1668 57.7915 56.1668C54.9096 56.1668 52.4599 55.1582 50.4425 53.1408C48.4252 51.1234 47.4165 48.6738 47.4165 45.7918H33.5832C33.5832 48.6738 32.5745 51.1234 30.5571 53.1408C28.5398 55.1582 26.0901 56.1668 23.2082 56.1668ZM54.0738 31.9585H70.7603L71.1061 30.1429L64.7082 21.5835H56.4946L54.0738 31.9585ZM52.4311 8.35537L52.604 7.75016L45.3415 38.8752L45.5144 38.27L48.454 25.647L52.4311 8.35537ZM0.729004 33.0825L2.45817 26.1658H21.479L19.7498 33.0825H0.729004ZM7.64567 20.4595L9.37484 13.5429H31.854L30.1248 20.4595H7.64567ZM23.2082 49.2502C24.188 49.2502 25.0094 48.9187 25.6722 48.2559C26.3351 47.593 26.6665 46.7717 26.6665 45.7918C26.6665 44.812 26.3351 43.9906 25.6722 43.3278C25.0094 42.6649 24.188 42.3335 23.2082 42.3335C22.2283 42.3335 21.407 42.6649 20.7441 43.3278C20.0813 43.9906 19.7498 44.812 19.7498 45.7918C19.7498 46.7717 20.0813 47.593 20.7441 48.2559C21.407 48.9187 22.2283 49.2502 23.2082 49.2502ZM57.7915 49.2502C58.7714 49.2502 59.5927 48.9187 60.2556 48.2559C60.9184 47.593 61.2498 46.7717 61.2498 45.7918C61.2498 44.812 60.9184 43.9906 60.2556 43.3278C59.5927 42.6649 58.7714 42.3335 57.7915 42.3335C56.8116 42.3335 55.9903 42.6649 55.3274 43.3278C54.6646 43.9906 54.3332 44.812 54.3332 45.7918C54.3332 46.7717 54.6646 47.593 55.3274 48.2559C55.9903 48.9187 56.8116 49.2502 57.7915 49.2502Z" fill="#A3968E"/>
</svg>
