<svg width="77" height="57" viewBox="0 0 77 57" fill="none" xmlns="http://www.w3.org/2000/svg">
<path d="M17.7502 56.1668C14.8682 56.1668 12.4186 55.1582 10.4012 53.1408C8.38384 51.1234 7.37516 48.6738 7.37516 45.7918H0.458496V7.75016C0.458496 5.84808 1.13575 4.21978 2.49027 2.86527C3.84478 1.51075 5.47308 0.833496 7.37516 0.833496H55.7918V14.6668H66.1668L76.5418 28.5002V45.7918H69.6252C69.6252 48.6738 68.6165 51.1234 66.5991 53.1408C64.5817 55.1582 62.1321 56.1668 59.2502 56.1668C56.3682 56.1668 53.9186 55.1582 51.9012 53.1408C49.8838 51.1234 48.8752 48.6738 48.8752 45.7918H28.1252C28.1252 48.6738 27.1165 51.1234 25.0991 53.1408C23.0818 55.1582 20.6321 56.1668 17.7502 56.1668ZM17.7502 49.2502C18.73 49.2502 19.5514 48.9187 20.2142 48.2559C20.8771 47.5931 21.2085 46.7717 21.2085 45.7918C21.2085 44.812 20.8771 43.9906 20.2142 43.3278C19.5514 42.6649 18.73 42.3335 17.7502 42.3335C16.7703 42.3335 15.9489 42.6649 15.2861 43.3278C14.6233 43.9906 14.2918 44.812 14.2918 45.7918C14.2918 46.7717 14.6233 47.5931 15.2861 48.2559C15.9489 48.9187 16.7703 49.2502 17.7502 49.2502ZM7.37516 38.8752H10.1418C11.1217 37.8377 12.2456 37.0019 13.5137 36.3679C14.7818 35.7338 16.1939 35.4168 17.7502 35.4168C19.3064 35.4168 20.7186 35.7338 21.9866 36.3679C23.2547 37.0019 24.3786 37.8377 25.3585 38.8752H48.8752V7.75016H7.37516V38.8752ZM59.2502 49.2502C60.23 49.2502 61.0514 48.9187 61.7142 48.2559C62.3771 47.5931 62.7085 46.7717 62.7085 45.7918C62.7085 44.812 62.3771 43.9906 61.7142 43.3278C61.0514 42.6649 60.23 42.3335 59.2502 42.3335C58.2703 42.3335 57.4489 42.6649 56.7861 43.3278C56.1232 43.9906 55.7918 44.812 55.7918 45.7918C55.7918 46.7717 56.1232 47.5931 56.7861 48.2559C57.4489 48.9187 58.2703 49.2502 59.2502 49.2502ZM55.7918 31.9585H70.4897L62.7085 21.5835H55.7918V31.9585Z" fill="#A3968E"/>
</svg>
